<?xml version="1.0" standalone="no"?>
<!DOCTYPE svg PUBLIC "-//W3C//DTD SVG 1.1//EN" "http://www.w3.org/Graphics/SVG/1.1/DTD/svg11.dtd" >
<svg xmlns="http://www.w3.org/2000/svg">
<metadata></metadata>
<defs>
<font id="att_aleck_cmplight" horiz-adv-x="272" >
<font-face units-per-em="1000" ascent="750" descent="-250" />
<missing-glyph horiz-adv-x="190" />
<glyph unicode="fb" horiz-adv-x="574" d="M72 0v479h-56v37h56v79q0 66 29 103.5t81 37.5q27 0 48 -9l-12 -37q-16 6 -32 6q-34 0 -50.5 -24t-16.5 -75v-81h95v-37h-95v-479h-47zM267 0v726h47v-243q14 18 40 30.5t51 12.5q130 0 130 -268t-130 -268q-26 0 -53 14t-42 34l-4 -38h-39zM394 486q-19 0 -40.5 -12.5 t-39.5 -33.5v-364q18 -21 39.5 -33.5t40.5 -12.5q48 0 70.5 55t22.5 173t-22.5 173t-70.5 55z" />
<glyph unicode="fj" horiz-adv-x="371" d="M72 0v479h-56v37h56v79q0 66 29 103.5t81 37.5q27 0 48 -9l-12 -37q-16 6 -32 6q-34 0 -50.5 -24t-16.5 -75v-81h175v-37h-175v-479h-47zM194 -155q16 -7 31 -7q23 0 32.5 15.5t9.5 52.5v610h47v-605q0 -59 -19 -86t-61 -27q-28 0 -49 12zM326 657q0 -16 -9.5 -26 t-26.5 -10q-16 0 -26 10t-10 26q0 17 10 26.5t26 9.5q17 0 26.5 -9.5t9.5 -26.5z" />
<glyph unicode="fk" horiz-adv-x="543" d="M72 0v479h-56v37h56v79q0 66 29 103.5t81 37.5q27 0 48 -9l-12 -37q-16 6 -32 6q-34 0 -50.5 -24t-16.5 -75v-81h95v-37h-95v-479h-47zM267 0v726h47v-457l157 247h51l-128 -198l137 -318h-51l-119 283l-47 -74v-209h-47z" />
<glyph unicode="ft" horiz-adv-x="453" d="M72 0v479h-56v37h56v79q0 66 29 103.5t81 37.5q27 0 48 -9l-12 -37q-16 6 -32 6q-34 0 -50.5 -24t-16.5 -75v-81h175v-37h-175v-479h-47zM312 479v-346q0 -56 13 -79.5t45 -23.5q23 0 49 13l12 -37q-32 -16 -66 -16q-52 0 -76 33t-24 105v351h-56v37h57l7 129h39v-129 h102v-37h-102z" />
<glyph unicode="fh" horiz-adv-x="578" d="M72 0v479h-56v37h56v79q0 66 29 103.5t81 37.5q27 0 48 -9l-12 -37q-16 6 -32 6q-34 0 -50.5 -24t-16.5 -75v-81h95v-37h-95v-479h-47zM267 0v726h47v-245q51 45 108 45q49 0 75.5 -34.5t26.5 -98.5v-393h-47v392q0 94 -70 94q-43 0 -93 -44v-442h-47z" />
<glyph unicode="ff" horiz-adv-x="426" d="M72 0v479h-56v37h56v79q0 66 29 103.5t81 37.5q27 0 48 -9l-12 -37q-16 6 -32 6q-34 0 -50.5 -24t-16.5 -75v-81h175v-37h-175v-479h-47zM267 0v479h-56v37h56v79q0 66 29 103.5t81 37.5q32 0 58 -13l-12 -36q-22 9 -42 9q-34 0 -50.5 -24t-16.5 -75v-81h95v-37h-95v-479 h-47z" />
<glyph unicode="fi" horiz-adv-x="371" d="M72 0v479h-56v37h56v79q0 66 29 103.5t81 37.5q27 0 48 -9l-12 -37q-16 6 -32 6q-34 0 -50.5 -24t-16.5 -75v-81h175v-37h-175v-479h-47zM267 0v516h47v-516h-47zM326 657q0 -16 -9.5 -26t-26.5 -10q-16 0 -26 10t-10 26q0 17 10 26.5t26 9.5q17 0 26.5 -9.5t9.5 -26.5z " />
<glyph unicode="fl" horiz-adv-x="371" d="M72 0v479h-56v37h56v79q0 66 29 103.5t81 37.5q27 0 48 -9l-12 -37q-16 6 -32 6q-34 0 -50.5 -24t-16.5 -75v-81h95v-37h-95v-479h-47zM267 0v726h47v-726h-47z" />
<glyph unicode="ffi" horiz-adv-x="566" d="M72 0v479h-56v37h56v79q0 66 29 103.5t81 37.5q27 0 48 -9l-12 -37q-16 6 -32 6q-34 0 -50.5 -24t-16.5 -75v-81h175v-37h-175v-479h-47zM267 0v479h-56v37h56v79q0 66 29 103.5t81 37.5q27 0 48 -9l-12 -37q-16 6 -32 6q-34 0 -50.5 -24t-16.5 -75v-81h175v-37h-175 v-479h-47zM462 0v516h47v-516h-47zM521 657q0 -16 -9.5 -26t-26.5 -10q-16 0 -26 10t-10 26q0 17 10 26.5t26 9.5q17 0 26.5 -9.5t9.5 -26.5z" />
<glyph unicode="ffl" horiz-adv-x="566" d="M72 0v479h-56v37h56v79q0 66 29 103.5t81 37.5q27 0 48 -9l-12 -37q-16 6 -32 6q-34 0 -50.5 -24t-16.5 -75v-81h175v-37h-175v-479h-47zM267 0v479h-56v37h56v79q0 66 29 103.5t81 37.5q27 0 48 -9l-12 -37q-16 6 -32 6q-34 0 -50.5 -24t-16.5 -75v-81h95v-37h-95v-479 h-47zM462 0v726h47v-726h-47z" />
<glyph unicode="ffb" horiz-adv-x="769" d="M72 0v479h-56v37h56v79q0 66 29 103.5t81 37.5q27 0 48 -9l-12 -37q-16 6 -32 6q-34 0 -50.5 -24t-16.5 -75v-81h175v-37h-175v-479h-47zM267 0v479h-56v37h56v79q0 66 29 103.5t81 37.5q27 0 48 -9l-12 -37q-16 6 -32 6q-34 0 -50.5 -24t-16.5 -75v-81h95v-37h-95v-479 h-47zM462 0v726h47v-243q14 18 40 30.5t51 12.5q130 0 130 -268t-130 -268q-26 0 -53 14t-42 34l-4 -38h-39zM589 486q-19 0 -40.5 -12.5t-39.5 -33.5v-364q18 -21 39.5 -33.5t40.5 -12.5q48 0 70.5 55t22.5 173t-22.5 173t-70.5 55z" />
<glyph unicode="ffh" horiz-adv-x="773" d="M72 0v479h-56v37h56v79q0 66 29 103.5t81 37.5q27 0 48 -9l-12 -37q-16 6 -32 6q-34 0 -50.5 -24t-16.5 -75v-81h175v-37h-175v-479h-47zM267 0v479h-56v37h56v79q0 66 29 103.5t81 37.5q27 0 48 -9l-12 -37q-16 6 -32 6q-34 0 -50.5 -24t-16.5 -75v-81h95v-37h-95v-479 h-47zM462 0v726h47v-245q51 45 108 45q49 0 75.5 -34.5t26.5 -98.5v-393h-47v392q0 94 -70 94q-43 0 -93 -44v-442h-47z" />
<glyph unicode="ffj" horiz-adv-x="566" d="M72 0v479h-56v37h56v79q0 66 29 103.5t81 37.5q27 0 48 -9l-12 -37q-16 6 -32 6q-34 0 -50.5 -24t-16.5 -75v-81h175v-37h-175v-479h-47zM267 0v479h-56v37h56v79q0 66 29 103.5t81 37.5q27 0 48 -9l-12 -37q-16 6 -32 6q-34 0 -50.5 -24t-16.5 -75v-81h175v-37h-175 v-479h-47zM389 -155q16 -7 31 -7q23 0 32.5 15.5t9.5 52.5v610h47v-605q0 -59 -19 -86t-61 -27q-28 0 -49 12zM521 657q0 -16 -9.5 -26t-26.5 -10q-16 0 -26 10t-10 26q0 17 10 26.5t26 9.5q17 0 26.5 -9.5t9.5 -26.5z" />
<glyph unicode="ffk" horiz-adv-x="738" d="M72 0v479h-56v37h56v79q0 66 29 103.5t81 37.5q27 0 48 -9l-12 -37q-16 6 -32 6q-34 0 -50.5 -24t-16.5 -75v-81h175v-37h-175v-479h-47zM267 0v479h-56v37h56v79q0 66 29 103.5t81 37.5q27 0 48 -9l-12 -37q-16 6 -32 6q-34 0 -50.5 -24t-16.5 -75v-81h95v-37h-95v-479 h-47zM462 0v726h47v-457l157 247h51l-128 -198l137 -318h-51l-119 283l-47 -74v-209h-47z" />
<glyph unicode="fft" horiz-adv-x="648" d="M72 0v479h-56v37h56v79q0 66 29 103.5t81 37.5q27 0 48 -9l-12 -37q-16 6 -32 6q-34 0 -50.5 -24t-16.5 -75v-81h175v-37h-175v-479h-47zM267 0v479h-56v37h56v79q0 66 29 103.5t81 37.5q27 0 48 -9l-12 -37q-16 6 -32 6q-34 0 -50.5 -24t-16.5 -75v-81h175v-37h-175 v-479h-47zM507 479v-346q0 -56 13 -79.5t45 -23.5q23 0 49 13l12 -37q-32 -16 -66 -16q-52 0 -76 33t-24 105v351h-56v37h57l7 129h39v-129h102v-37h-102z" />
<glyph unicode=" "  horiz-adv-x="190" />
<glyph unicode="&#x09;" horiz-adv-x="190" />
<glyph unicode="&#xa0;" horiz-adv-x="190" />
<glyph unicode="!" horiz-adv-x="162" d="M60 194l-5 506h52l-5 -506h-42zM120 28q0 -16 -11 -27t-28 -11t-28 11t-11 27t11 27t28 11t28 -11t11 -27z" />
<glyph unicode="&#x22;" horiz-adv-x="230" d="M39 455l-6 245h49l-6 -245h-37zM154 455l-6 245h49l-6 -245h-37z" />
<glyph unicode="#" horiz-adv-x="382" d="M78 0l17 211h-55v37h58l15 194h-58v37h61l17 211h40l-17 -211h91l17 211h40l-17 -211h55v-37h-58l-15 -194h58v-37h-61l-17 -211h-40l17 211h-91l-17 -211h-40zM138 248h91l15 194h-91z" />
<glyph unicode="$" horiz-adv-x="382" d="M63 59q19 -13 45 -20.5t50 -7.5q9 0 18 1v313q-59 38 -85.5 82t-26.5 103q0 63 30 106.5t83 57.5v97h39v-91h4q53 0 98 -26l-13 -34q-43 19 -80 19q-2 0 -4.5 -0.5t-4.5 -0.5v-285q61 -38 89 -83t28 -105q0 -75 -30.5 -124t-87.5 -64v-110h-39v104q-8 -1 -18 -1 q-27 0 -57.5 9t-50.5 23zM287 181q0 48 -16.5 80t-55.5 59v-280q72 29 72 141zM110 534q0 -47 15.5 -78.5t51.5 -57.5v252q-32 -13 -49.5 -43.5t-17.5 -72.5z" />
<glyph unicode="%" horiz-adv-x="610" d="M150 0l266 690h44l-266 -690h-44zM474 28q28 0 41 39t13 120v16q0 81 -13 120t-41 39t-41 -39t-13 -120v-16q0 -81 13 -120t41 -39zM474 -10q-97 0 -97 197v16q0 197 97 197t97 -197v-16q0 -197 -97 -197zM136 328q28 0 41 39t13 120v16q0 81 -13 120t-41 39t-41 -39 t-13 -120v-16q0 -81 13 -120t41 -39zM136 290q-97 0 -97 197v16q0 197 97 197t97 -197v-16q0 -197 -97 -197z" />
<glyph unicode="&#x26;" horiz-adv-x="415" d="M361 0l-64 107q-53 -117 -143 -117q-59 0 -94.5 45t-35.5 122q0 70 26 121t86 99q-37 62 -52 106t-15 88q0 64 31 101.5t84 37.5q52 0 81.5 -35.5t29.5 -97.5q0 -58 -25.5 -108t-80.5 -99l103 -169l61 174h43l-77 -217l96 -158h-54zM154 29q34 0 65 31t53 89l-116 194 q-47 -41 -66 -83t-19 -102q0 -58 22.5 -93.5t60.5 -35.5zM115 571q0 -74 54 -167q41 37 60.5 79.5t19.5 94.5q0 44 -17.5 69t-48.5 25t-49.5 -27.5t-18.5 -73.5z" />
<glyph unicode="'" horiz-adv-x="115" d="M39 455l-6 245h49l-6 -245h-37z" />
<glyph unicode="(" horiz-adv-x="205" d="M134 -164q-41 84 -65 203.5t-24 243.5t24 243.5t65 203.5h49q-42 -91 -65.5 -208.5t-23.5 -238.5t23.5 -238.5t65.5 -208.5h-49z" />
<glyph unicode=")" horiz-adv-x="205" d="M22 -164q42 91 65.5 208.5t23.5 238.5t-23.5 238.5t-65.5 208.5h49q41 -84 65 -203.5t24 -243.5t-24 -243.5t-65 -203.5h-49z" />
<glyph unicode="*" horiz-adv-x="310" d="M222 435l-67 98l-67 -98l-30 22l73 94l-114 32l12 37l111 -41l-6 117h42l-6 -117l111 41l12 -37l-114 -32l73 -94z" />
<glyph unicode="+" horiz-adv-x="382" d="M166 187v136h-126v43h126v136h49v-136h126v-43h-126v-136h-49z" />
<glyph unicode="," horiz-adv-x="146" d="M1 -104q31 24 47 47t20 49q-15 2 -24.5 12t-9.5 24q0 16 11 27t28 11t28 -13.5t11 -33.5q0 -43 -24 -80.5t-69 -66.5z" />
<glyph unicode="-" horiz-adv-x="252" d="M42 253v42h168v-42h-168z" />
<glyph unicode="." horiz-adv-x="146" d="M112 28q0 -16 -11 -27t-28 -11t-28 11t-11 27t11 27t28 11t28 -11t11 -27z" />
<glyph unicode="/" horiz-adv-x="299" d="M15 -164l222 894h47l-222 -894h-47z" />
<glyph unicode="0" horiz-adv-x="364" d="M182 33q47 0 69 74.5t22 230.5v14q0 156 -22 230.5t-69 74.5t-69 -74.5t-22 -230.5v-14q0 -156 22 -230.5t69 -74.5zM182 -10q-140 0 -140 348v14q0 348 140 348t140 -348v-14q0 -348 -140 -348z" />
<glyph unicode="1" horiz-adv-x="245" d="M129 0v630l-95 -79l-28 33l127 106h44v-690h-48z" />
<glyph unicode="2" horiz-adv-x="301" d="M31 0v34q0 78 8 132.5t27.5 96.5t57.5 86q60 68 80.5 108.5t20.5 90.5t-24 79.5t-65 29.5q-21 0 -45.5 -11.5t-47.5 -33.5l-23 33q26 26 58 40.5t65 14.5q58 0 94.5 -43t36.5 -112q0 -38 -9 -67.5t-32.5 -65.5t-74.5 -97q-34 -40 -50 -71.5t-23 -77t-7 -122.5h189v-44 h-236z" />
<glyph unicode="3" horiz-adv-x="313" d="M42 57q35 -24 80 -24q47 0 75.5 42.5t28.5 114.5q0 73 -29 111.5t-85 38.5h-36v44h36q45 0 73 39.5t28 105.5q0 59 -25 93.5t-66 34.5q-35 0 -73 -28l-22 34q21 17 48 27t54 10q40 0 70.5 -22.5t46.5 -61.5t16 -87q0 -57 -23.5 -100t-65.5 -64q50 -18 76 -63t26 -112 q0 -92 -41 -146t-112 -54q-55 0 -98 30z" />
<glyph unicode="4" horiz-adv-x="342" d="M221 0v178h-199v40l193 472h53v-470h48v-42h-48v-178h-47zM221 220v380l-155 -380h155z" />
<glyph unicode="5" horiz-adv-x="304" d="M40 57q35 -24 80 -24q51 0 80.5 45t29.5 124t-31 119.5t-91 40.5q-27 0 -60 -1l15 329h180v-44h-140l-11 -242q13 1 32 1q71 0 113 -55t42 -150t-43.5 -152.5t-115.5 -57.5q-55 0 -98 30z" />
<glyph unicode="6" horiz-adv-x="345" d="M205 657q-54 0 -80 -59t-32 -195q42 10 79 10q148 0 148 -204q0 -103 -36 -161t-101 -58q-74 0 -107.5 74t-33.5 236v26q0 196 38.5 285t123.5 89q46 0 95 -30l-16 -38q-41 25 -78 25zM163 372q-30 0 -72 -10v-57q0 -146 21.5 -209t72.5 -63q41 0 63.5 45.5t22.5 128.5 q0 86 -26 125.5t-82 39.5z" />
<glyph unicode="7" horiz-adv-x="282" d="M65 0v67q0 42 4.5 80t17 87t51.5 173l75 239h-196v44h243v-41l-75 -242q-37 -120 -49 -167.5t-17.5 -86.5t-5.5 -86v-67h-48z" />
<glyph unicode="8" horiz-adv-x="342" d="M299 524q0 -109 -72 -167q38 -24 60.5 -72.5t22.5 -109.5q0 -87 -37 -136t-103 -49q-65 0 -101.5 49t-36.5 138q0 64 22.5 112.5t64.5 74.5q-36 22 -56.5 64.5t-20.5 97.5q0 80 34.5 127t93.5 47q60 0 94.5 -47t34.5 -129zM172 32q43 0 66 38.5t23 110.5q0 122 -83 157 l-24 10q-73 -53 -73 -170q0 -70 23.5 -108t67.5 -38zM90 522q0 -106 75 -137l27 -11q59 53 59 151q0 64 -21.5 98.5t-59.5 34.5t-59 -35.5t-21 -100.5z" />
<glyph unicode="9" horiz-adv-x="345" d="M57 58q41 -25 78 -25q39 0 63 24t37 80t17 155q-36 -10 -79 -10q-148 0 -148 199q0 103 36 161t101 58q74 0 107.5 -74t33.5 -236v-21q0 -137 -16 -219.5t-52.5 -121t-98.5 -38.5q-46 0 -95 30zM182 323q35 0 71 9q1 14 1 28.5v29.5q0 143 -21.5 205t-72.5 62 q-41 0 -63.5 -45.5t-22.5 -128.5t26 -121.5t82 -38.5z" />
<glyph unicode=":" horiz-adv-x="146" d="M112 28q0 -16 -11 -27t-28 -11t-28 11t-11 27t11 27t28 11t28 -11t11 -27zM112 478q0 -16 -11 -27t-28 -11t-28 11t-11 27t11 27t28 11t28 -11t11 -27z" />
<glyph unicode=";" horiz-adv-x="146" d="M1 -104q31 24 47 47t20 49q-15 2 -24.5 12t-9.5 24q0 16 11 27t28 11t28 -13.5t11 -33.5q0 -43 -24 -80.5t-69 -66.5zM112 478q0 -16 -11 -27t-28 -11t-28 11t-11 27t11 27t28 11t28 -11t11 -27z" />
<glyph unicode="&#x3c;" horiz-adv-x="382" d="M48 324v42l266 137v-46l-217 -112l217 -112v-46z" />
<glyph unicode="=" horiz-adv-x="382" d="M40 233v43h301v-43h-301zM40 414v43h301v-43h-301z" />
<glyph unicode="&#x3e;" horiz-adv-x="382" d="M68 187v46l217 112l-217 112v46l266 -137v-42z" />
<glyph unicode="?" horiz-adv-x="275" d="M92 194v24q0 69 10.5 105t39.5 72l13 16q29 36 42 68.5t13 69.5q0 55 -25 87.5t-69 32.5q-45 0 -92 -34l-20 31q26 21 56.5 32t60.5 11q64 0 100.5 -42.5t36.5 -116.5q0 -45 -15.5 -82.5t-52.5 -83.5l-13 -16q-15 -19 -24 -38.5t-13 -45t-4 -66.5v-24h-44zM153 28 q0 -16 -11 -27t-28 -11t-28 11t-11 27t11 27t28 11t28 -11t11 -27z" />
<glyph unicode="@" horiz-adv-x="635" d="M464 -137q-33 -16 -74.5 -25t-82.5 -9q-127 0 -199 87.5t-72 241.5q0 129 45.5 234t119.5 163t162 58q107 0 171.5 -84.5t64.5 -225.5q0 -87 -23 -156.5t-60 -108t-82 -38.5q-33 0 -53.5 17.5t-26.5 50.5q-39 -47 -87 -47q-38 0 -60.5 38t-22.5 103q0 71 23.5 132.5 t59.5 96t75 34.5q35 0 66 -34l7 25h36l-51 -271q-5 -26 -5 -45q0 -61 43 -61q33 0 59.5 37t41 97t14.5 132q0 125 -51 196.5t-140 71.5q-62 0 -114.5 -34t-89.5 -91.5t-56.5 -131.5t-19.5 -156q0 -141 58.5 -216t170.5 -75q35 0 73.5 8.5t69.5 22.5zM279 60q36 0 72 53 l46 244q-11 13 -25.5 21t-28.5 8q-31 0 -57.5 -32.5t-41.5 -82.5t-15 -105q0 -49 14 -77.5t36 -28.5z" />
<glyph unicode="A" horiz-adv-x="403" d="M334 0l-44 214h-179l-44 -214h-48l153 700h59l153 -700h-50zM200 648l-80 -390h161z" />
<glyph unicode="B" horiz-adv-x="393" d="M61 0v700h118q76 0 118 -48.5t42 -136.5q0 -58 -24 -100t-66 -58q49 -17 77 -61.5t28 -107.5q0 -87 -42.5 -137.5t-115.5 -50.5h-135zM110 331v-286h82q52 0 81.5 37.5t29.5 105.5t-29.5 105.5t-81.5 37.5h-82zM110 655v-279h67q54 0 82.5 35.5t28.5 103.5t-28.5 104 t-82.5 36h-67z" />
<glyph unicode="C" horiz-adv-x="356" d="M334 18q-39 -28 -97 -28q-90 0 -141.5 96t-51.5 264t51.5 264t141.5 96q53 0 93 -24l-15 -39q-38 17 -74 17q-69 0 -107.5 -83t-38.5 -231t38.5 -231t107.5 -83q40 0 78 21z" />
<glyph unicode="D" horiz-adv-x="423" d="M166 45q77 0 119.5 80t42.5 225t-42.5 225t-119.5 80h-56v-610h56zM61 0v700h105q101 0 157 -91.5t56 -258.5t-56 -258.5t-157 -91.5h-105z" />
<glyph unicode="E" horiz-adv-x="339" d="M110 332v-287h196v-45h-245v700h239v-45h-190v-278h156v-45h-156z" />
<glyph unicode="F" horiz-adv-x="322" d="M61 0v700h231v-45h-182v-292h148v-45h-148v-318h-49z" />
<glyph unicode="G" horiz-adv-x="407" d="M249 36q30 0 56 11v274h-98v45h147v-345q-50 -31 -111 -31q-96 0 -147.5 93.5t-51.5 266.5q0 172 53.5 266t152.5 94q47 0 87 -22l-14 -39q-37 15 -69 15q-78 0 -118.5 -80t-40.5 -234q0 -152 39.5 -233t114.5 -81z" />
<glyph unicode="H" horiz-adv-x="425" d="M61 0v700h49v-324h205v324h49v-700h-49v331h-205v-331h-49z" />
<glyph unicode="I" horiz-adv-x="171" d="M61 0v700h49v-700h-49z" />
<glyph unicode="J" horiz-adv-x="273" d="M27 53q37 -17 65 -17q40 0 57.5 30t17.5 97v537h49v-543q0 -85 -29.5 -126t-90.5 -41q-44 0 -84 22z" />
<glyph unicode="K" horiz-adv-x="391" d="M61 0v700h49v-376l196 376h53l-151 -286l158 -414h-53l-139 365l-64 -124v-241h-49z" />
<glyph unicode="L" horiz-adv-x="315" d="M61 0v700h49v-655h182v-45h-231z" />
<glyph unicode="M" horiz-adv-x="536" d="M427 0v597l-136 -474h-46l-136 474v-597h-48v700h62l145 -507l146 507h61v-700h-48z" />
<glyph unicode="N" horiz-adv-x="423" d="M305 0l-198 600v-600h-46v700h57l198 -600v600h46v-700h-57z" />
<glyph unicode="O" horiz-adv-x="438" d="M219 -10q-86 0 -130.5 91t-44.5 269t44.5 269t130.5 91t130.5 -91t44.5 -269t-44.5 -269t-130.5 -91zM219 36q61 0 92.5 79.5t31.5 234.5t-31.5 234.5t-92.5 79.5t-92.5 -79.5t-31.5 -234.5t31.5 -234.5t92.5 -79.5z" />
<glyph unicode="P" horiz-adv-x="375" d="M61 0v700h121q74 0 115.5 -56t41.5 -157t-41.5 -157.5t-115.5 -56.5h-72v-273h-49zM110 655v-337h65q55 0 84 43t29 126q0 82 -29 125t-84 43h-65z" />
<glyph unicode="Q" horiz-adv-x="438" d="M219 -10q-86 0 -130.5 91t-44.5 269t44.5 269t130.5 91t130.5 -91t44.5 -269q0 -232 -75 -316l49 -80l-35 -22l-47 75q-31 -17 -67 -17zM219 36q24 0 43 12l-72 118l35 22l67 -110q51 74 51 272q0 155 -31.5 234.5t-92.5 79.5t-92.5 -79.5t-31.5 -234.5t31.5 -234.5 t92.5 -79.5z" />
<glyph unicode="R" horiz-adv-x="391" d="M61 0v700h121q73 0 115 -55.5t42 -152.5q0 -76 -26.5 -127.5t-75.5 -70.5l120 -294h-53l-115 284h-79v-284h-49zM110 655v-326h65q54 0 83.5 42.5t29.5 120.5t-29.5 120.5t-83.5 42.5h-65z" />
<glyph unicode="S" horiz-adv-x="336" d="M34 60q19 -11 45 -17.5t51 -6.5q59 0 90.5 38t31.5 111q0 49 -18.5 82.5t-62.5 60.5l-21 13q-57 35 -83.5 80t-26.5 107q0 78 44 130t108 52q53 0 100 -26l-14 -39q-45 19 -80 19q-49 0 -79 -36.5t-30 -95.5q0 -49 18.5 -82.5t62.5 -60.5l21 -13q57 -35 83.5 -80 t26.5 -107q0 -91 -45.5 -145t-121.5 -54q-31 0 -62.5 8.5t-51.5 22.5z" />
<glyph unicode="T" horiz-adv-x="381" d="M166 0v655h-138v45h325v-45h-138v-655h-49z" />
<glyph unicode="U" horiz-adv-x="416" d="M310 700h49v-533q0 -83 -40 -130t-111 -47t-111 47t-40 130v533h49v-532q0 -64 26.5 -98t75.5 -34t75.5 34t26.5 98v532z" />
<glyph unicode="V" horiz-adv-x="384" d="M162 0l-140 700h52l119 -640l119 640h50l-140 -700h-60z" />
<glyph unicode="W" horiz-adv-x="536" d="M352 0l-84 549l-84 -549h-61l-91 700h50l72 -638l89 578h51l88 -580l73 640h49l-91 -700h-61z" />
<glyph unicode="X" horiz-adv-x="384" d="M29 0l135 353l-133 347h53l108 -299l111 299h50l-134 -348l136 -352h-53l-111 304l-112 -304h-50z" />
<glyph unicode="Y" horiz-adv-x="357" d="M154 0v255l-132 445h53l104 -387l105 387h51l-132 -445v-255h-49z" />
<glyph unicode="Z" horiz-adv-x="332" d="M23 0v42l226 613h-216v45h268v-42l-226 -613h234v-45h-286z" />
<glyph unicode="[" horiz-adv-x="220" d="M62 -164v894h134v-40h-86v-814h86v-40h-134z" />
<glyph unicode="\" horiz-adv-x="299" d="M237 -164l-222 894h47l222 -894h-47z" />
<glyph unicode="]" horiz-adv-x="220" d="M24 -164v40h86v814h-86v40h134v-894h-134z" />
<glyph unicode="^" horiz-adv-x="382" d="M280 409l-91 237l-91 -237h-45l115 281h45l115 -281h-48z" />
<glyph unicode="_" horiz-adv-x="281" d="M0 -130v40h281v-40h-281z" />
<glyph unicode="`" horiz-adv-x="368" d="M205 611l-87 139h58l74 -139h-45z" />
<glyph unicode="a" horiz-adv-x="333" d="M240 0l-4 37q-43 -47 -90 -47q-51 0 -81.5 41.5t-30.5 109.5q0 75 36 119t98 44h65v78q0 104 -79 104q-40 0 -90 -35l-17 34q25 19 55 30t59 11q58 0 88 -36.5t30 -106.5v-383h-39zM154 30q42 0 79 43v194h-56q-50 0 -73 -30t-23 -95q0 -52 19.5 -82t53.5 -30z" />
<glyph unicode="b" horiz-adv-x="364" d="M57 0v726h47v-243q14 18 40 30.5t51 12.5q130 0 130 -268t-130 -268q-26 0 -53 14t-42 34l-4 -38h-39zM184 486q-19 0 -40.5 -12.5t-39.5 -33.5v-364q18 -21 39.5 -33.5t40.5 -12.5q48 0 70.5 55t22.5 173t-22.5 173t-70.5 55z" />
<glyph unicode="c" horiz-adv-x="299" d="M275 13q-33 -23 -82 -23q-75 0 -114.5 69.5t-39.5 199.5q0 128 41 197.5t117 69.5q39 0 73 -23l-14 -36q-31 19 -58 19q-53 0 -82 -59t-29 -168q0 -229 112 -229q31 0 62 19z" />
<glyph unicode="d" horiz-adv-x="364" d="M268 0l-4 38q-16 -20 -42.5 -34t-52.5 -14q-130 0 -130 268t130 268q24 0 49.5 -12.5t41.5 -30.5v243h47v-726h-39zM180 30q19 0 40 12.5t40 33.5v364q-19 21 -40 33.5t-40 12.5q-48 0 -70.5 -55t-22.5 -173t22.5 -173t70.5 -55z" />
<glyph unicode="e" horiz-adv-x="343" d="M288 18q-43 -28 -94 -28q-76 0 -115.5 68.5t-39.5 199.5q0 125 37 196.5t102 71.5q58 0 90 -62t32 -177q0 -23 -2 -41h-212q1 -109 29.5 -162t85.5 -53q35 0 72 24zM175 486q-40 0 -63 -53t-26 -150h168v13q0 93 -20.5 141.5t-58.5 48.5z" />
<glyph unicode="f" horiz-adv-x="231" d="M72 0v479h-56v37h56v79q0 66 29 103.5t81 37.5q32 0 58 -13l-12 -36q-22 9 -42 9q-34 0 -50.5 -24t-16.5 -75v-81h95v-37h-95v-479h-47z" />
<glyph unicode="g" horiz-adv-x="364" d="M260 43q-16 -18 -41.5 -30.5t-49.5 -12.5q-66 0 -98 65t-32 197q0 264 130 264q26 0 52.5 -14t42.5 -34l4 38h39v-529q0 -189 -135 -189q-27 0 -55.5 7.5t-49.5 21.5l15 37q43 -26 87 -26q48 0 69.5 35t21.5 113v57zM180 40q19 0 40 12.5t40 33.5v354q-19 21 -40 33.5 t-40 12.5q-48 0 -70.5 -55t-22.5 -169q0 -115 22.5 -168.5t70.5 -53.5z" />
<glyph unicode="h" horiz-adv-x="368" d="M57 0v726h47v-245q51 45 108 45q49 0 75.5 -34.5t26.5 -98.5v-393h-47v392q0 94 -70 94q-43 0 -93 -44v-442h-47z" />
<glyph unicode="i" horiz-adv-x="161" d="M57 0v516h47v-516h-47zM116 657q0 -16 -9.5 -26t-26.5 -10q-16 0 -26 10t-10 26q0 17 10 26.5t26 9.5q17 0 26.5 -9.5t9.5 -26.5z" />
<glyph unicode="j" horiz-adv-x="161" d="M-16 -155q16 -7 31 -7q23 0 32.5 15.5t9.5 52.5v610h47v-605q0 -59 -19 -86t-61 -27q-28 0 -49 12zM116 657q0 -16 -9.5 -26t-26.5 -10q-16 0 -26 10t-10 26q0 17 10 26.5t26 9.5q17 0 26.5 -9.5t9.5 -26.5z" />
<glyph unicode="k" horiz-adv-x="333" d="M57 0v726h47v-457l157 247h51l-128 -198l137 -318h-51l-119 283l-47 -74v-209h-47z" />
<glyph unicode="l" horiz-adv-x="161" d="M57 0v726h47v-726h-47z" />
<glyph unicode="m" horiz-adv-x="554" d="M453 0v402q0 84 -58 84q-46 0 -96 -46q3 -18 3 -37v-403h-47v402q0 84 -58 84q-43 0 -93 -44v-442h-47v516h39l4 -38q53 48 112 48q56 0 78 -54q56 54 120 54q43 0 66.5 -32t23.5 -91v-403h-47z" />
<glyph unicode="n" horiz-adv-x="368" d="M267 0v392q0 94 -70 94q-43 0 -93 -44v-442h-47v516h39l4 -38q53 48 112 48q49 0 75.5 -34.5t26.5 -98.5v-393h-47z" />
<glyph unicode="o" horiz-adv-x="366" d="M183 30q96 0 96 228t-96 228t-96 -228t96 -228zM183 -10q-71 0 -107.5 68t-36.5 200t36.5 200t107.5 68t107.5 -68t36.5 -200t-36.5 -200t-107.5 -68z" />
<glyph unicode="p" horiz-adv-x="364" d="M57 -192v708h39l4 -38q15 20 42 34t53 14q130 0 130 -268t-130 -268q-25 0 -51 12.5t-40 30.5v-225h-47zM184 486q-19 0 -40.5 -12.5t-39.5 -33.5v-364q18 -21 39.5 -33.5t40.5 -12.5q48 0 70.5 55t22.5 173t-22.5 173t-70.5 55z" />
<glyph unicode="q" horiz-adv-x="364" d="M260 -192v225q-16 -18 -41.5 -30.5t-49.5 -12.5q-130 0 -130 268t130 268q26 0 52.5 -14t42.5 -34l4 38h39v-708h-47zM180 30q19 0 40 12.5t40 33.5v364q-19 21 -40 33.5t-40 12.5q-48 0 -70.5 -55t-22.5 -173t22.5 -173t70.5 -55z" />
<glyph unicode="r" horiz-adv-x="244" d="M57 0v516h39l5 -52q22 29 49.5 45.5t53.5 16.5q15 0 25 -4l-6 -42q-12 2 -24 2q-54 0 -95 -63v-419h-47z" />
<glyph unicode="s" horiz-adv-x="294" d="M37 59q40 -29 91 -29q41 0 65.5 28t24.5 75q0 33 -17 58.5t-53 47.5l-13 8q-54 33 -77.5 66.5t-23.5 77.5q0 60 36.5 97.5t93.5 37.5q46 0 86 -24l-14 -36q-38 20 -70 20q-38 0 -61.5 -24.5t-23.5 -65.5q0 -33 17 -58.5t53 -47.5l13 -8q54 -33 77.5 -66.5t23.5 -77.5 q0 -68 -38 -108t-101 -40q-57 0 -103 33z" />
<glyph unicode="t" horiz-adv-x="258" d="M117 479v-346q0 -56 13 -79.5t45 -23.5q23 0 49 13l12 -37q-32 -16 -66 -16q-52 0 -76 33t-24 105v351h-56v37h57l7 129h39v-129h102v-37h-102z" />
<glyph unicode="u" horiz-adv-x="364" d="M268 0l-4 35q-49 -45 -108 -45q-49 0 -75.5 34.5t-26.5 98.5v393h47v-392q0 -94 70 -94q44 0 89 40v446h47v-516h-39z" />
<glyph unicode="v" horiz-adv-x="324" d="M139 0l-117 516h51l90 -460l90 460h49l-117 -516h-46z" />
<glyph unicode="w" horiz-adv-x="471" d="M304 0l-68 429l-69 -429h-44l-99 516h50l71 -444l68 425h46l68 -428l72 447h48l-99 -516h-44z" />
<glyph unicode="x" horiz-adv-x="318" d="M243 0l-85 224l-85 -224h-50l110 265l-103 251h52l78 -206l78 206h50l-104 -249l111 -267h-52z" />
<glyph unicode="y" horiz-adv-x="324" d="M27 -155q16 -7 30 -7q19 0 33 15t26 51t24 102l-118 510h51l90 -448l90 448h49l-123 -543q-16 -70 -30 -107t-33 -52.5t-51 -15.5q-25 0 -47 11z" />
<glyph unicode="z" horiz-adv-x="275" d="M22 0v32l178 447h-173v37h220v-32l-178 -447h184v-37h-231z" />
<glyph unicode="{" horiz-adv-x="233" d="M209 -159q-27 -6 -42 -6q-97 0 -97 137q0 44 9 105q8 66 8 99q0 48 -12 68t-41 20h-12v38h12q29 0 41 20t12 68q0 33 -8 99q-9 61 -9 105q0 137 97 137q15 0 42 -6v-39q-16 4 -34 4q-31 0 -44 -23.5t-13 -76.5q0 -33 8 -97q8 -68 8 -105q0 -47 -13 -72.5t-40 -32.5 q27 -7 40 -32.5t13 -72.5q0 -37 -8 -105q-8 -64 -8 -97q0 -53 13 -76.5t44 -23.5q18 0 34 4v-39z" />
<glyph unicode="|" horiz-adv-x="157" d="M55 -216v946h47v-946h-47z" />
<glyph unicode="}" horiz-adv-x="233" d="M24 -120q16 -4 34 -4q31 0 44 23.5t13 76.5q0 33 -8 97q-8 68 -8 105q0 47 13 72.5t40 32.5q-27 7 -40 32.5t-13 72.5q0 37 8 105q8 64 8 97q0 53 -13 76.5t-44 23.5q-18 0 -34 -4v39q27 6 42 6q97 0 97 -137q0 -44 -9 -105q-8 -66 -8 -99q0 -48 12 -68t41 -20h12v-38 h-12q-29 0 -41 -20t-12 -68q0 -33 8 -99q9 -61 9 -105q0 -137 -97 -137q-15 0 -42 6v39z" />
<glyph unicode="~" horiz-adv-x="382" d="M344 387q0 -52 -21 -79.5t-61 -27.5q-21 0 -40 11t-48 40q-22 23 -33 30.5t-23 7.5q-21 0 -31 -16.5t-10 -50.5v-18h-40v18q0 52 21 79.5t61 27.5q21 0 40 -11t48 -40q23 -24 34 -31t22 -7q21 0 31 16.5t10 50.5v18h40v-18z" />
<glyph unicode="&#xa1;" horiz-adv-x="162" d="M55 -184l5 506h42l5 -506h-52zM120 488q0 -16 -11 -27t-28 -11t-28 11t-11 27t11 27t28 11t28 -11t11 -27z" />
<glyph unicode="&#xa2;" horiz-adv-x="382" d="M207 -113v106q-64 12 -97 78.5t-33 182.5q0 113 33 179.5t97 79.5v107h39v-104q19 -2 39 -8t33 -15l-14 -36q-30 17 -58 19v-446q16 1 33.5 6t29.5 13l14 -36q-13 -9 -33.5 -15t-43.5 -8v-103h-39zM125 254q0 -188 82 -218v434q-82 -32 -82 -216z" />
<glyph unicode="&#xa3;" horiz-adv-x="382" d="M183 327q3 -28 3 -58q0 -156 -66 -225h211v-44h-265v44q38 32 56 83.5t18 133.5q0 33 -3 66h-65v42h59q-7 38 -13 61q-9 37 -12.5 59.5t-3.5 51.5q0 73 36 116t96 43q57 0 100 -31l-17 -36q-25 14 -42 19t-37 5q-42 0 -64.5 -30t-22.5 -85q0 -45 15 -111q8 -37 12 -62h98 v-42h-93z" />
<glyph unicode="&#xa5;" horiz-adv-x="382" d="M167 0v133h-105v42h105v111h-105v42h91l-115 362h52l102 -347l102 347h50l-116 -362h92v-42h-105v-111h105v-42h-105v-133h-48z" />
<glyph unicode="&#xa7;" horiz-adv-x="308" d="M52 -66q45 -20 80 -20q38 0 61.5 24.5t23.5 65.5q0 33 -17 58.5t-53 47.5l-13 8q-64 39 -92.5 80t-28.5 96q0 57 27.5 99t74.5 58q-37 27 -54 57t-17 67q0 60 36.5 97.5t93.5 37.5q46 0 86 -24l-14 -36q-38 20 -70 20q-38 0 -61.5 -24.5t-23.5 -65.5q0 -33 17 -58.5 t53 -47.5l13 -8q64 -39 92.5 -80t28.5 -96q0 -57 -27.5 -99t-74.5 -58q37 -27 54 -57t17 -67q0 -60 -36.5 -97.5t-93.5 -37.5q-51 0 -96 24zM157 157q41 9 66 44t25 84q0 43 -22.5 75.5t-74.5 66.5q-41 -9 -66 -44t-25 -84q0 -43 22.5 -75.5t74.5 -66.5z" />
<glyph unicode="&#xa8;" horiz-adv-x="368" d="M151 681q0 -15 -10.5 -24.5t-26.5 -9.5t-26 9.5t-10 24.5t10.5 24.5t26.5 9.5t26 -9.5t10 -24.5zM288 681q0 -15 -10.5 -24.5t-26.5 -9.5t-26 9.5t-10 24.5t10.5 24.5t26.5 9.5t26 -9.5t10 -24.5z" />
<glyph unicode="&#xa9;" horiz-adv-x="388" d="M254 353q-25 -17 -53 -17q-41 0 -67 43.5t-26 114.5t26 114.5t67 43.5q27 0 51 -15l-11 -34q-15 9 -35 9q-25 0 -39 -30.5t-14 -87.5t14 -87.5t39 -30.5q21 0 37 11zM194 261q60 0 95.5 63.5t35.5 169.5t-35.5 169.5t-95.5 63.5t-95.5 -63.5t-35.5 -169.5t35.5 -169.5 t95.5 -63.5zM194 224q-52 0 -91 34.5t-59.5 95.5t-20.5 140q0 82 22 143.5t60.5 94t88.5 32.5q52 0 91 -34.5t59.5 -95.5t20.5 -140q0 -82 -22 -143.5t-60.5 -94t-88.5 -32.5z" />
<glyph unicode="&#xaa;" horiz-adv-x="230" d="M24 255v38h172v-38h-172zM164 351l-5 29q-28 -36 -63 -36q-34 0 -55.5 28t-21.5 74q0 51 26.5 78.5t74.5 27.5h34v42q0 37 -12 53t-40 16t-63 -21l-15 30q41 28 82 28q90 0 90 -106v-243h-32zM103 381q28 0 51 28v109h-30q-32 0 -47 -18t-15 -55q0 -30 10.5 -47t30.5 -17 z" />
<glyph unicode="&#xab;" horiz-adv-x="299" d="M112 107l-93 173l93 173h46l-92 -173l92 -173h-46zM228 107l-93 173l93 173h46l-92 -173l92 -173h-46z" />
<glyph unicode="&#xac;" horiz-adv-x="382" d="M282 187v136h-252v43h301v-179h-49z" />
<glyph unicode="&#xae;" horiz-adv-x="388" d="M231 352l-45 112h-15v-112h-42v291h61q38 0 58.5 -24t20.5 -66q0 -63 -43 -82l49 -119h-44zM187 500q39 0 39 53t-39 53h-16v-106h16zM194 261q60 0 95.5 63.5t35.5 169.5t-35.5 169.5t-95.5 63.5t-95.5 -63.5t-35.5 -169.5t35.5 -169.5t95.5 -63.5zM194 224 q-52 0 -91 34.5t-59.5 95.5t-20.5 140q0 82 22 143.5t60.5 94t88.5 32.5q52 0 91 -34.5t59.5 -95.5t20.5 -140q0 -82 -22 -143.5t-60.5 -94t-88.5 -32.5z" />
<glyph unicode="&#xb0;" horiz-adv-x="266" d="M133 505q31 0 52 22.5t21 56.5t-21 56.5t-52 22.5t-52 -22.5t-21 -56.5t21 -56.5t52 -22.5zM133 468q-49 0 -82.5 33.5t-33.5 82.5t33.5 82.5t82.5 33.5t82.5 -33.5t33.5 -82.5t-33.5 -82.5t-82.5 -33.5z" />
<glyph unicode="&#xb2;" d="M55 420v16q0 47 5 75t18.5 52t46.5 59q29 31 40.5 53.5t11.5 48.5q0 27 -13.5 42.5t-37.5 15.5q-29 0 -58 -21l-17 30q16 13 37.5 21t41.5 8q39 0 64 -26.5t25 -67.5q0 -32 -15.5 -62t-54.5 -72q-33 -35 -42 -59t-10 -74h122v-39h-164z" />
<glyph unicode="&#xb3;" d="M51 469q32 -21 63 -21q29 0 46 20t17 56q0 37 -16.5 59.5t-44.5 22.5h-34v36h33q25 0 40 19.5t15 53.5q0 32 -13.5 49.5t-37.5 17.5q-25 0 -58 -23l-17 31q38 30 78 30t65 -28.5t25 -74.5q0 -30 -13 -54t-37 -37q27 -13 42 -40t15 -64q0 -50 -28 -81t-72 -31 q-47 0 -83 26z" />
<glyph unicode="&#xb4;" horiz-adv-x="368" d="M118 611l74 139h58l-87 -139h-45z" />
<glyph unicode="&#xb6;" horiz-adv-x="384" d="M276 -110v763h-60v-763h-47v416q-62 5 -99.5 59t-37.5 138q0 87 41.5 142t105.5 55h144v-810h-47z" />
<glyph unicode="&#xb7;" horiz-adv-x="146" d="M112 288q0 -16 -11 -27t-28 -11t-28 11t-11 27t11 27t28 11t28 -11t11 -27z" />
<glyph unicode="&#xb8;" horiz-adv-x="368" d="M106 -167q33 -19 70 -19q55 0 55 46t-70 46h-31l38 96h44l-23 -60q41 -4 63 -25t22 -57q0 -39 -25.5 -61t-71.5 -22q-51 0 -83 23z" />
<glyph unicode="&#xb9;" d="M138 420v336l-68 -57l-22 30l95 81h37v-390h-42z" />
<glyph unicode="&#xba;" horiz-adv-x="253" d="M37 255v38h178v-38h-178zM126 344q-97 0 -97 178t97 178t97 -178t-97 -178zM126 381q28 0 41 34t13 107t-13 107t-41 34t-41 -34t-13 -107t13 -107t41 -34z" />
<glyph unicode="&#xbb;" horiz-adv-x="299" d="M25 107l92 173l-92 173h46l93 -173l-93 -173h-46zM141 107l92 173l-92 173h46l93 -173l-93 -173h-46z" />
<glyph unicode="&#xbc;" horiz-adv-x="610" d="M159 0l266 690h44l-266 -690h-44zM505 0v89h-133v35l130 266h40v-265h30v-36h-30v-89h-37zM505 125v196l-95 -196h95zM138 300v336l-68 -57l-22 30l95 81h37v-390h-42z" />
<glyph unicode="&#xbd;" horiz-adv-x="610" d="M141 0l266 690h44l-266 -690h-44zM393 0v16q0 47 5 75t18.5 52t46.5 59q29 31 40.5 53.5t11.5 48.5q0 27 -13.5 42.5t-37.5 15.5q-29 0 -58 -21l-17 30q16 13 37.5 21t41.5 8q39 0 64 -26.5t25 -67.5q0 -32 -15.5 -62t-54.5 -72q-33 -35 -42 -59t-10 -74h122v-39h-164z M138 300v336l-68 -57l-22 30l95 81h37v-390h-42z" />
<glyph unicode="&#xbe;" horiz-adv-x="610" d="M158 0l266 690h44l-266 -690h-44zM505 0v89h-133v35l130 266h40v-265h30v-36h-30v-89h-37zM505 125v196l-95 -196h95zM51 349q32 -21 63 -21q29 0 46 20t17 56q0 37 -16.5 59.5t-44.5 22.5h-34v36h33q25 0 40 19.5t15 53.5q0 32 -13.5 49.5t-37.5 17.5q-25 0 -58 -23 l-17 31q38 30 78 30t65 -28.5t25 -74.5q0 -30 -13 -54t-37 -37q27 -13 42 -40t15 -64q0 -50 -28 -81t-72 -31q-47 0 -83 26z" />
<glyph unicode="&#xbf;" horiz-adv-x="275" d="M271 -150q-26 -21 -56.5 -32t-60.5 -11q-64 0 -100.5 42.5t-36.5 116.5q0 45 15.5 82.5t52.5 83.5l13 16q15 19 24 38.5t13 45t4 66.5v24h44v-24q0 -69 -10.5 -105t-39.5 -72l-13 -16q-29 -36 -42 -68.5t-13 -69.5q0 -55 25 -87.5t69 -32.5q45 0 92 34zM200 488 q0 -16 -11 -27t-28 -11t-28 11t-11 27t11 27t28 11t28 -11t11 -27z" />
<glyph unicode="&#xc0;" horiz-adv-x="403" d="M334 0l-44 214h-179l-44 -214h-48l153 700h59l153 -700h-50zM200 648l-80 -390h161zM181 770l-100 109h66l84 -109h-50z" />
<glyph unicode="&#xc1;" horiz-adv-x="403" d="M334 0l-44 214h-179l-44 -214h-48l153 700h59l153 -700h-50zM200 648l-80 -390h161zM173 770l84 109h66l-100 -109h-50z" />
<glyph unicode="&#xc2;" horiz-adv-x="403" d="M334 0l-44 214h-179l-44 -214h-48l153 700h59l153 -700h-50zM200 648l-80 -390h161zM257 770l-55 71l-55 -71h-49l75 109h58l75 -109h-49z" />
<glyph unicode="&#xc3;" horiz-adv-x="403" d="M334 0l-44 214h-179l-44 -214h-48l153 700h59l153 -700h-50zM200 648l-80 -390h161zM322 871q-3 -98 -68 -98q-18 0 -35.5 9t-45.5 33q-11 10 -18 13.5t-15 3.5q-13 0 -19.5 -12.5t-9.5 -43.5h-41q3 98 68 98q18 0 35.5 -9t45.5 -33q11 -10 18 -13.5t15 -3.5 q13 0 19.5 12.5t9.5 43.5h41z" />
<glyph unicode="&#xc4;" horiz-adv-x="403" d="M334 0l-44 214h-179l-44 -214h-48l153 700h59l153 -700h-50zM200 648l-80 -390h161zM170 824q0 -16 -10 -25.5t-27 -9.5t-27 9.5t-10 25.5t10 25.5t27 9.5t27 -9.5t10 -25.5zM308 824q0 -16 -10 -25.5t-27 -9.5t-27 9.5t-10 25.5t10 25.5t27 9.5t27 -9.5t10 -25.5z" />
<glyph unicode="&#xc5;" horiz-adv-x="403" d="M334 0l-44 214h-179l-44 -214h-48l153 700h59l153 -700h-50zM200 648l-80 -390h161zM298 855q0 -42 -26.5 -68t-69.5 -26t-69.5 26t-26.5 68t26.5 68t69.5 26t69.5 -26t26.5 -68zM256 855q0 24 -15.5 40.5t-38.5 16.5t-38.5 -16.5t-15.5 -40.5t15.5 -40.5t38.5 -16.5 t38.5 16.5t15.5 40.5z" />
<glyph unicode="&#xc6;" horiz-adv-x="566" d="M19 0l246 700h262v-45h-180v-278h146v-45h-146v-287h186v-45h-235v214h-157l-74 -214h-48zM156 258h142v397h-5z" />
<glyph unicode="&#xc7;" horiz-adv-x="356" d="M334 18q-39 -28 -97 -28q-90 0 -141.5 96t-51.5 264t51.5 264t141.5 96q53 0 93 -24l-15 -39q-38 17 -74 17q-69 0 -107.5 -83t-38.5 -231t38.5 -231t107.5 -83q40 0 78 21zM147 -165q33 -19 70 -19q25 0 38.5 11.5t13.5 32.5q0 44 -68 44h-31l38 98h46l-23 -61 q40 -4 61.5 -25t21.5 -56q0 -39 -25.5 -61t-71.5 -22q-51 0 -83 23z" />
<glyph unicode="&#xc8;" horiz-adv-x="339" d="M110 332v-287h196v-45h-245v700h239v-45h-190v-278h156v-45h-156zM159 770l-100 109h66l84 -109h-50z" />
<glyph unicode="&#xc9;" horiz-adv-x="339" d="M110 332v-287h196v-45h-245v700h239v-45h-190v-278h156v-45h-156zM151 770l84 109h66l-100 -109h-50z" />
<glyph unicode="&#xca;" horiz-adv-x="339" d="M110 332v-287h196v-45h-245v700h239v-45h-190v-278h156v-45h-156zM235 770l-55 71l-55 -71h-49l75 109h58l75 -109h-49z" />
<glyph unicode="&#xcb;" horiz-adv-x="339" d="M110 332v-287h196v-45h-245v700h239v-45h-190v-278h156v-45h-156zM148 824q0 -16 -10 -25.5t-27 -9.5t-27 9.5t-10 25.5t10 25.5t27 9.5t27 -9.5t10 -25.5zM286 824q0 -16 -10 -25.5t-27 -9.5t-27 9.5t-10 25.5t10 25.5t27 9.5t27 -9.5t10 -25.5z" />
<glyph unicode="&#xcc;" horiz-adv-x="171" d="M61 0v700h49v-700h-49zM64 770l-100 109h66l84 -109h-50z" />
<glyph unicode="&#xcd;" horiz-adv-x="171" d="M61 0v700h49v-700h-49zM56 770l84 109h66l-100 -109h-50z" />
<glyph unicode="&#xce;" horiz-adv-x="171" d="M61 0v700h49v-700h-49zM140 770l-55 71l-55 -71h-49l75 109h58l75 -109h-49z" />
<glyph unicode="&#xcf;" horiz-adv-x="171" d="M61 0v700h49v-700h-49zM53 824q0 -16 -10 -25.5t-27 -9.5t-27 9.5t-10 25.5t10 25.5t27 9.5t27 -9.5t10 -25.5zM191 824q0 -16 -10 -25.5t-27 -9.5t-27 9.5t-10 25.5t10 25.5t27 9.5t27 -9.5t10 -25.5z" />
<glyph unicode="&#xd0;" horiz-adv-x="435" d="M73 0v340h-50v42h50v318h105q101 0 157 -91.5t56 -258.5t-56 -258.5t-157 -91.5h-105zM178 45q77 0 119.5 80t42.5 225t-42.5 225t-119.5 80h-56v-273h79v-42h-79v-295h56z" />
<glyph unicode="&#xd1;" horiz-adv-x="423" d="M305 0l-198 600v-600h-46v700h57l198 -600v600h46v-700h-57zM331 871q-3 -98 -68 -98q-18 0 -35.5 9t-45.5 33q-11 10 -18 13.5t-15 3.5q-13 0 -19.5 -12.5t-9.5 -43.5h-41q3 98 68 98q18 0 35.5 -9t45.5 -33q11 -10 18 -13.5t15 -3.5q13 0 19.5 12.5t9.5 43.5h41z" />
<glyph unicode="&#xd2;" horiz-adv-x="438" d="M219 -10q-86 0 -130.5 91t-44.5 269t44.5 269t130.5 91t130.5 -91t44.5 -269t-44.5 -269t-130.5 -91zM219 36q61 0 92.5 79.5t31.5 234.5t-31.5 234.5t-92.5 79.5t-92.5 -79.5t-31.5 -234.5t31.5 -234.5t92.5 -79.5zM198 770l-100 109h66l84 -109h-50z" />
<glyph unicode="&#xd3;" horiz-adv-x="438" d="M219 -10q-86 0 -130.5 91t-44.5 269t44.5 269t130.5 91t130.5 -91t44.5 -269t-44.5 -269t-130.5 -91zM219 36q61 0 92.5 79.5t31.5 234.5t-31.5 234.5t-92.5 79.5t-92.5 -79.5t-31.5 -234.5t31.5 -234.5t92.5 -79.5zM190 770l84 109h66l-100 -109h-50z" />
<glyph unicode="&#xd4;" horiz-adv-x="438" d="M219 -10q-86 0 -130.5 91t-44.5 269t44.5 269t130.5 91t130.5 -91t44.5 -269t-44.5 -269t-130.5 -91zM219 36q61 0 92.5 79.5t31.5 234.5t-31.5 234.5t-92.5 79.5t-92.5 -79.5t-31.5 -234.5t31.5 -234.5t92.5 -79.5zM274 770l-55 71l-55 -71h-49l75 109h58l75 -109h-49z " />
<glyph unicode="&#xd5;" horiz-adv-x="438" d="M219 -10q-86 0 -130.5 91t-44.5 269t44.5 269t130.5 91t130.5 -91t44.5 -269t-44.5 -269t-130.5 -91zM219 36q61 0 92.5 79.5t31.5 234.5t-31.5 234.5t-92.5 79.5t-92.5 -79.5t-31.5 -234.5t31.5 -234.5t92.5 -79.5zM339 871q-3 -98 -68 -98q-18 0 -35.5 9t-45.5 33 q-11 10 -18 13.5t-15 3.5q-13 0 -19.5 -12.5t-9.5 -43.5h-41q3 98 68 98q18 0 35.5 -9t45.5 -33q11 -10 18 -13.5t15 -3.5q13 0 19.5 12.5t9.5 43.5h41z" />
<glyph unicode="&#xd6;" horiz-adv-x="438" d="M219 -10q-86 0 -130.5 91t-44.5 269t44.5 269t130.5 91t130.5 -91t44.5 -269t-44.5 -269t-130.5 -91zM219 36q61 0 92.5 79.5t31.5 234.5t-31.5 234.5t-92.5 79.5t-92.5 -79.5t-31.5 -234.5t31.5 -234.5t92.5 -79.5zM187 824q0 -16 -10 -25.5t-27 -9.5t-27 9.5t-10 25.5 t10 25.5t27 9.5t27 -9.5t10 -25.5zM325 824q0 -16 -10 -25.5t-27 -9.5t-27 9.5t-10 25.5t10 25.5t27 9.5t27 -9.5t10 -25.5z" />
<glyph unicode="&#xd7;" horiz-adv-x="382" d="M191 309l-116 -118l-34 33l118 117l-118 117l34 33l116 -118l116 118l34 -33l-118 -117l118 -117l-34 -33z" />
<glyph unicode="&#xd8;" horiz-adv-x="438" d="M34 10l44 94q-34 89 -34 246q0 178 44.5 269t130.5 91q72 0 115 -63l31 67l39 -24l-44 -94q34 -89 34 -246q0 -178 -44.5 -269t-130.5 -91q-71 0 -115 63l-31 -67zM219 664q-61 0 -92.5 -79.5t-31.5 -234.5q0 -107 15 -179l198 422q-30 71 -89 71zM219 36q61 0 92.5 79.5 t31.5 234.5q0 107 -15 179l-198 -422q30 -71 89 -71z" />
<glyph unicode="&#xd9;" horiz-adv-x="416" d="M310 700h49v-533q0 -83 -40 -130t-111 -47t-111 47t-40 130v533h49v-532q0 -64 26.5 -98t75.5 -34t75.5 34t26.5 98v532zM187 770l-100 109h66l84 -109h-50z" />
<glyph unicode="&#xda;" horiz-adv-x="416" d="M310 700h49v-533q0 -83 -40 -130t-111 -47t-111 47t-40 130v533h49v-532q0 -64 26.5 -98t75.5 -34t75.5 34t26.5 98v532zM179 770l84 109h66l-100 -109h-50z" />
<glyph unicode="&#xdb;" horiz-adv-x="416" d="M310 700h49v-533q0 -83 -40 -130t-111 -47t-111 47t-40 130v533h49v-532q0 -64 26.5 -98t75.5 -34t75.5 34t26.5 98v532zM263 770l-55 71l-55 -71h-49l75 109h58l75 -109h-49z" />
<glyph unicode="&#xdc;" horiz-adv-x="416" d="M310 700h49v-533q0 -83 -40 -130t-111 -47t-111 47t-40 130v533h49v-532q0 -64 26.5 -98t75.5 -34t75.5 34t26.5 98v532zM176 824q0 -16 -10 -25.5t-27 -9.5t-27 9.5t-10 25.5t10 25.5t27 9.5t27 -9.5t10 -25.5zM314 824q0 -16 -10 -25.5t-27 -9.5t-27 9.5t-10 25.5 t10 25.5t27 9.5t27 -9.5t10 -25.5z" />
<glyph unicode="&#xdd;" horiz-adv-x="357" d="M154 0v255l-132 445h53l104 -387l105 387h51l-132 -445v-255h-49zM149 770l84 109h66l-100 -109h-50z" />
<glyph unicode="&#xde;" horiz-adv-x="375" d="M61 0v700h49v-132h72q74 0 115.5 -56t41.5 -157t-41.5 -157.5t-115.5 -56.5h-72v-141h-49zM110 523v-337h65q55 0 84 43t29 126q0 82 -29 125t-84 43h-65z" />
<glyph unicode="&#xdf;" horiz-adv-x="360" d="M139 43q25 -13 48 -13q42 0 68 47t26 122q0 80 -29.5 125t-82.5 45h-25v37h22q40 0 65 48t25 125q0 66 -20 103.5t-56 37.5q-41 0 -62 -44t-21 -130v-546h-46v546q0 214 129 214q57 0 90.5 -49t33.5 -132q0 -63 -22.5 -115.5t-56.5 -69.5q31 -10 55 -39t36.5 -69.5 t12.5 -86.5q0 -93 -38.5 -151t-99.5 -58q-37 0 -66 19z" />
<glyph unicode="&#xe0;" horiz-adv-x="333" d="M240 0l-4 37q-43 -47 -90 -47q-51 0 -81.5 41.5t-30.5 109.5q0 75 36 119t98 44h65v78q0 104 -79 104q-40 0 -90 -35l-17 34q25 19 55 30t59 11q58 0 88 -36.5t30 -106.5v-383h-39zM154 30q42 0 79 43v194h-56q-50 0 -73 -30t-23 -95q0 -52 19.5 -82t53.5 -30zM139 611 l-87 139h58l74 -139h-45z" />
<glyph unicode="&#xe1;" horiz-adv-x="333" d="M240 0l-4 37q-43 -47 -90 -47q-51 0 -81.5 41.5t-30.5 109.5q0 75 36 119t98 44h65v78q0 104 -79 104q-40 0 -90 -35l-17 34q25 19 55 30t59 11q58 0 88 -36.5t30 -106.5v-383h-39zM154 30q42 0 79 43v194h-56q-50 0 -73 -30t-23 -95q0 -52 19.5 -82t53.5 -30zM130 611 l74 139h58l-87 -139h-45z" />
<glyph unicode="&#xe2;" horiz-adv-x="333" d="M240 0l-4 37q-43 -47 -90 -47q-51 0 -81.5 41.5t-30.5 109.5q0 75 36 119t98 44h65v78q0 104 -79 104q-40 0 -90 -35l-17 34q25 19 55 30t59 11q58 0 88 -36.5t30 -106.5v-383h-39zM154 30q42 0 79 43v194h-56q-50 0 -73 -30t-23 -95q0 -52 19.5 -82t53.5 -30zM212 611 l-55 96l-55 -96h-45l74 139h52l74 -139h-45z" />
<glyph unicode="&#xe3;" horiz-adv-x="333" d="M240 0l-4 37q-43 -47 -90 -47q-51 0 -81.5 41.5t-30.5 109.5q0 75 36 119t98 44h65v78q0 104 -79 104q-40 0 -90 -35l-17 34q25 19 55 30t59 11q58 0 88 -36.5t30 -106.5v-383h-39zM154 30q42 0 79 43v194h-56q-50 0 -73 -30t-23 -95q0 -52 19.5 -82t53.5 -30zM269 724 q-2 -51 -17.5 -74t-46.5 -23q-17 0 -32 8t-42 32q-14 13 -20 15.5t-12 2.5q-12 0 -17 -11t-8 -45h-41q2 51 17.5 74t46.5 23q17 0 32 -8t42 -32q14 -13 20 -15.5t12 -2.5q12 0 17 11t8 45h41z" />
<glyph unicode="&#xe4;" horiz-adv-x="333" d="M240 0l-4 37q-43 -47 -90 -47q-51 0 -81.5 41.5t-30.5 109.5q0 75 36 119t98 44h65v78q0 104 -79 104q-40 0 -90 -35l-17 34q25 19 55 30t59 11q58 0 88 -36.5t30 -106.5v-383h-39zM154 30q42 0 79 43v194h-56q-50 0 -73 -30t-23 -95q0 -52 19.5 -82t53.5 -30zM125 681 q0 -15 -10.5 -24.5t-26.5 -9.5t-26 9.5t-10 24.5t10.5 24.5t26.5 9.5t26 -9.5t10 -24.5zM262 681q0 -15 -10.5 -24.5t-26.5 -9.5t-26 9.5t-10 24.5t10.5 24.5t26.5 9.5t26 -9.5t10 -24.5z" />
<glyph unicode="&#xe5;" horiz-adv-x="333" d="M240 0l-4 37q-43 -47 -90 -47q-51 0 -81.5 41.5t-30.5 109.5q0 75 36 119t98 44h65v78q0 104 -79 104q-40 0 -90 -35l-17 34q25 19 55 30t59 11q58 0 88 -36.5t30 -106.5v-383h-39zM154 30q42 0 79 43v194h-56q-50 0 -73 -30t-23 -95q0 -52 19.5 -82t53.5 -30zM252 686 q0 -41 -26.5 -67t-68.5 -26t-68.5 26t-26.5 67t26.5 67t68.5 26t68.5 -26t26.5 -67zM212 686q0 24 -15.5 41t-39.5 17t-39.5 -17t-15.5 -41t15.5 -41t39.5 -17t39.5 17t15.5 41z" />
<glyph unicode="&#xe6;" horiz-adv-x="513" d="M482 18q-43 -28 -94 -28q-74 0 -113 66q-60 -66 -124 -66q-54 0 -85.5 40.5t-31.5 110.5q0 72 36 115t98 43h65v83q0 104 -79 104q-40 0 -90 -35l-17 34q25 19 55 30t59 11q40 0 67 -22t38 -63q18 41 45 63t61 22q58 0 90 -62t32 -177q0 -18 -2 -36h-212q1 -220 115 -220 q35 0 72 24zM259 90q-25 67 -26 172h-56q-49 0 -72.5 -29t-23.5 -91q0 -53 20.5 -82.5t56.5 -29.5q25 0 51.5 16t49.5 44zM369 486q-39 0 -62.5 -52t-26.5 -146h168v8q0 93 -20.5 141.5t-58.5 48.5z" />
<glyph unicode="&#xe7;" horiz-adv-x="299" d="M275 13q-33 -23 -82 -23q-75 0 -114.5 69.5t-39.5 199.5q0 128 41 197.5t117 69.5q39 0 73 -23l-14 -36q-31 19 -58 19q-53 0 -82 -59t-29 -168q0 -229 112 -229q31 0 62 19zM100 -167q33 -19 70 -19q55 0 55 46t-70 46h-31l38 96h44l-23 -60q41 -4 63 -25t22 -57 q0 -39 -25.5 -61t-71.5 -22q-51 0 -83 23z" />
<glyph unicode="&#xe8;" horiz-adv-x="343" d="M288 18q-43 -28 -94 -28q-76 0 -115.5 68.5t-39.5 199.5q0 125 37 196.5t102 71.5q58 0 90 -62t32 -177q0 -23 -2 -41h-212q1 -109 29.5 -162t85.5 -53q35 0 72 24zM175 486q-40 0 -63 -53t-26 -150h168v13q0 93 -20.5 141.5t-58.5 48.5zM158 611l-87 139h58l74 -139h-45 z" />
<glyph unicode="&#xe9;" horiz-adv-x="343" d="M288 18q-43 -28 -94 -28q-76 0 -115.5 68.5t-39.5 199.5q0 125 37 196.5t102 71.5q58 0 90 -62t32 -177q0 -23 -2 -41h-212q1 -109 29.5 -162t85.5 -53q35 0 72 24zM175 486q-40 0 -63 -53t-26 -150h168v13q0 93 -20.5 141.5t-58.5 48.5zM149 611l74 139h58l-87 -139h-45 z" />
<glyph unicode="&#xea;" horiz-adv-x="343" d="M288 18q-43 -28 -94 -28q-76 0 -115.5 68.5t-39.5 199.5q0 125 37 196.5t102 71.5q58 0 90 -62t32 -177q0 -23 -2 -41h-212q1 -109 29.5 -162t85.5 -53q35 0 72 24zM175 486q-40 0 -63 -53t-26 -150h168v13q0 93 -20.5 141.5t-58.5 48.5zM231 611l-55 96l-55 -96h-45 l74 139h52l74 -139h-45z" />
<glyph unicode="&#xeb;" horiz-adv-x="343" d="M288 18q-43 -28 -94 -28q-76 0 -115.5 68.5t-39.5 199.5q0 125 37 196.5t102 71.5q58 0 90 -62t32 -177q0 -23 -2 -41h-212q1 -109 29.5 -162t85.5 -53q35 0 72 24zM175 486q-40 0 -63 -53t-26 -150h168v13q0 93 -20.5 141.5t-58.5 48.5zM144 681q0 -15 -10.5 -24.5 t-26.5 -9.5t-26 9.5t-10 24.5t10.5 24.5t26.5 9.5t26 -9.5t10 -24.5zM281 681q0 -15 -10.5 -24.5t-26.5 -9.5t-26 9.5t-10 24.5t10.5 24.5t26.5 9.5t26 -9.5t10 -24.5z" />
<glyph unicode="&#xec;" horiz-adv-x="161" d="M57 0v516h47v-516h-47zM62 611l-87 139h58l74 -139h-45z" />
<glyph unicode="&#xed;" horiz-adv-x="161" d="M57 0v516h47v-516h-47zM53 611l74 139h58l-87 -139h-45z" />
<glyph unicode="&#xee;" horiz-adv-x="161" d="M57 0v516h47v-516h-47zM135 611l-55 96l-55 -96h-45l74 139h52l74 -139h-45z" />
<glyph unicode="&#xef;" horiz-adv-x="161" d="M57 0v516h47v-516h-47zM48 681q0 -15 -10.5 -24.5t-26.5 -9.5t-26 9.5t-10 24.5t10.5 24.5t26.5 9.5t26 -9.5t10 -24.5zM185 681q0 -15 -10.5 -24.5t-26.5 -9.5t-26 9.5t-10 24.5t10.5 24.5t26.5 9.5t26 -9.5t10 -24.5z" />
<glyph unicode="&#xf0;" horiz-adv-x="369" d="M218 673q54 -72 81.5 -171.5t27.5 -222.5q0 -147 -35.5 -218t-108.5 -71q-71 0 -107.5 65t-36.5 193q0 127 36.5 192.5t107.5 65.5q28 0 52 -16.5t36 -44.5q-26 119 -88 201l-78 -62l-23 31l77 61q-30 32 -57 52l25 34q35 -25 66 -59l80 64l24 -31zM183 30q96 0 96 218 t-96 218t-96 -218t96 -218z" />
<glyph unicode="&#xf1;" horiz-adv-x="368" d="M267 0v392q0 94 -70 94q-43 0 -93 -44v-442h-47v516h39l4 -38q53 48 112 48q49 0 75.5 -34.5t26.5 -98.5v-393h-47zM302 724q-2 -51 -17.5 -74t-46.5 -23q-17 0 -32 8t-42 32q-14 13 -20 15.5t-12 2.5q-12 0 -17 -11t-8 -45h-41q2 51 17.5 74t46.5 23q17 0 32 -8t42 -32 q14 -13 20 -15.5t12 -2.5q12 0 17 11t8 45h41z" />
<glyph unicode="&#xf2;" horiz-adv-x="366" d="M183 30q96 0 96 228t-96 228t-96 -228t96 -228zM183 -10q-71 0 -107.5 68t-36.5 200t36.5 200t107.5 68t107.5 -68t36.5 -200t-36.5 -200t-107.5 -68zM165 611l-87 139h58l74 -139h-45z" />
<glyph unicode="&#xf3;" horiz-adv-x="366" d="M183 30q96 0 96 228t-96 228t-96 -228t96 -228zM183 -10q-71 0 -107.5 68t-36.5 200t36.5 200t107.5 68t107.5 -68t36.5 -200t-36.5 -200t-107.5 -68zM156 611l74 139h58l-87 -139h-45z" />
<glyph unicode="&#xf4;" horiz-adv-x="366" d="M183 30q96 0 96 228t-96 228t-96 -228t96 -228zM183 -10q-71 0 -107.5 68t-36.5 200t36.5 200t107.5 68t107.5 -68t36.5 -200t-36.5 -200t-107.5 -68zM238 611l-55 96l-55 -96h-45l74 139h52l74 -139h-45z" />
<glyph unicode="&#xf5;" horiz-adv-x="366" d="M183 30q96 0 96 228t-96 228t-96 -228t96 -228zM183 -10q-71 0 -107.5 68t-36.5 200t36.5 200t107.5 68t107.5 -68t36.5 -200t-36.5 -200t-107.5 -68zM295 724q-2 -51 -17.5 -74t-46.5 -23q-17 0 -32 8t-42 32q-14 13 -20 15.5t-12 2.5q-12 0 -17 -11t-8 -45h-41 q2 51 17.5 74t46.5 23q17 0 32 -8t42 -32q14 -13 20 -15.5t12 -2.5q12 0 17 11t8 45h41z" />
<glyph unicode="&#xf6;" horiz-adv-x="366" d="M183 30q96 0 96 228t-96 228t-96 -228t96 -228zM183 -10q-71 0 -107.5 68t-36.5 200t36.5 200t107.5 68t107.5 -68t36.5 -200t-36.5 -200t-107.5 -68zM151 681q0 -15 -10.5 -24.5t-26.5 -9.5t-26 9.5t-10 24.5t10.5 24.5t26.5 9.5t26 -9.5t10 -24.5zM288 681 q0 -15 -10.5 -24.5t-26.5 -9.5t-26 9.5t-10 24.5t10.5 24.5t26.5 9.5t26 -9.5t10 -24.5z" />
<glyph unicode="&#xf7;" horiz-adv-x="382" d="M40 323v43h301v-43h-301zM230 479q0 -16 -11 -27t-28 -11t-28 11t-11 27t11 27t28 11t28 -11t11 -27zM230 210q0 -16 -11 -27t-28 -11t-28 11t-11 27t11 27t28 11t28 -11t11 -27z" />
<glyph unicode="&#xf8;" horiz-adv-x="366" d="M27 11l37 70q-25 65 -25 177q0 132 36.5 200t107.5 68q59 0 94 -46l26 49l36 -24l-37 -70q25 -65 25 -177q0 -132 -36.5 -200t-107.5 -68q-59 0 -94 46l-26 -49zM183 486q-96 0 -96 -228q0 -70 9 -118l157 295q-24 51 -70 51zM183 30q96 0 96 228q0 70 -9 118l-157 -295 q24 -51 70 -51z" />
<glyph unicode="&#xf9;" horiz-adv-x="364" d="M268 0l-4 35q-49 -45 -108 -45q-49 0 -75.5 34.5t-26.5 98.5v393h47v-392q0 -94 70 -94q44 0 89 40v446h47v-516h-39zM162 611l-87 139h58l74 -139h-45z" />
<glyph unicode="&#xfa;" horiz-adv-x="364" d="M268 0l-4 35q-49 -45 -108 -45q-49 0 -75.5 34.5t-26.5 98.5v393h47v-392q0 -94 70 -94q44 0 89 40v446h47v-516h-39zM153 611l74 139h58l-87 -139h-45z" />
<glyph unicode="&#xfb;" horiz-adv-x="364" d="M268 0l-4 35q-49 -45 -108 -45q-49 0 -75.5 34.5t-26.5 98.5v393h47v-392q0 -94 70 -94q44 0 89 40v446h47v-516h-39zM235 611l-55 96l-55 -96h-45l74 139h52l74 -139h-45z" />
<glyph unicode="&#xfc;" horiz-adv-x="364" d="M268 0l-4 35q-49 -45 -108 -45q-49 0 -75.5 34.5t-26.5 98.5v393h47v-392q0 -94 70 -94q44 0 89 40v446h47v-516h-39zM148 681q0 -15 -10.5 -24.5t-26.5 -9.5t-26 9.5t-10 24.5t10.5 24.5t26.5 9.5t26 -9.5t10 -24.5zM285 681q0 -15 -10.5 -24.5t-26.5 -9.5t-26 9.5 t-10 24.5t10.5 24.5t26.5 9.5t26 -9.5t10 -24.5z" />
<glyph unicode="&#xfd;" horiz-adv-x="324" d="M27 -155q16 -7 30 -7q19 0 33 15t26 51t24 102l-118 510h51l90 -448l90 448h49l-123 -543q-16 -70 -30 -107t-33 -52.5t-51 -15.5q-25 0 -47 11zM135 611l74 139h58l-87 -139h-45z" />
<glyph unicode="&#xfe;" horiz-adv-x="364" d="M57 -192v918h47v-243q14 18 40 30.5t51 12.5q130 0 130 -268t-130 -268q-25 0 -51 12.5t-40 30.5v-225h-47zM184 486q-19 0 -40.5 -12.5t-39.5 -33.5v-364q18 -21 39.5 -33.5t40.5 -12.5q48 0 70.5 55t22.5 173t-22.5 173t-70.5 55z" />
<glyph unicode="&#xff;" horiz-adv-x="324" d="M27 -155q16 -7 30 -7q19 0 33 15t26 51t24 102l-118 510h51l90 -448l90 448h49l-123 -543q-16 -70 -30 -107t-33 -52.5t-51 -15.5q-25 0 -47 11zM130 681q0 -15 -10.5 -24.5t-26.5 -9.5t-26 9.5t-10 24.5t10.5 24.5t26.5 9.5t26 -9.5t10 -24.5zM267 681 q0 -15 -10.5 -24.5t-26.5 -9.5t-26 9.5t-10 24.5t10.5 24.5t26.5 9.5t26 -9.5t10 -24.5z" />
<glyph unicode="&#x102;" horiz-adv-x="403" d="M334 0l-44 214h-179l-44 -214h-48l153 700h59l153 -700h-50zM200 648l-80 -390h161zM311 873q-3 -47 -33 -75t-76 -28t-76 28t-33 75h40q7 -31 24.5 -47t44.5 -16t44.5 16t24.5 47h40z" />
<glyph unicode="&#x103;" horiz-adv-x="333" d="M240 0l-4 37q-43 -47 -90 -47q-51 0 -81.5 41.5t-30.5 109.5q0 75 36 119t98 44h65v78q0 104 -79 104q-40 0 -90 -35l-17 34q25 19 55 30t59 11q58 0 88 -36.5t30 -106.5v-383h-39zM154 30q42 0 79 43v194h-56q-50 0 -73 -30t-23 -95q0 -52 19.5 -82t53.5 -30zM262 716 q-3 -47 -31.5 -75.5t-73.5 -28.5t-73.5 28.5t-31.5 75.5h40q13 -64 65 -64t65 64h40z" />
<glyph unicode="&#x131;" horiz-adv-x="161" d="M57 0v516h47v-516h-47z" />
<glyph unicode="&#x132;" horiz-adv-x="444" d="M61 0v700h49v-700h-49zM198 53q37 -17 65 -17q40 0 57.5 30t17.5 97v537h49v-543q0 -85 -29.5 -126t-90.5 -41q-44 0 -84 22z" />
<glyph unicode="&#x133;" horiz-adv-x="322" d="M57 0v516h47v-516h-47zM116 657q0 -16 -9.5 -26t-26.5 -10q-16 0 -26 10t-10 26q0 17 10 26.5t26 9.5q17 0 26.5 -9.5t9.5 -26.5zM145 -155q16 -7 31 -7q23 0 32.5 15.5t9.5 52.5v610h47v-605q0 -59 -19 -86t-61 -27q-28 0 -49 12zM277 657q0 -16 -9.5 -26t-26.5 -10 q-16 0 -26 10t-10 26q0 17 10 26.5t26 9.5q17 0 26.5 -9.5t9.5 -26.5z" />
<glyph unicode="&#x152;" horiz-adv-x="611" d="M392 332v-287h186v-45h-235v96q-41 -106 -124 -106q-86 0 -130.5 91t-44.5 269t44.5 269t130.5 91q83 0 124 -106v96h229v-45h-180v-278h146v-45h-146zM219 36q61 0 92.5 79.5t31.5 234.5t-31.5 234.5t-92.5 79.5t-92.5 -79.5t-31.5 -234.5t31.5 -234.5t92.5 -79.5z" />
<glyph unicode="&#x153;" horiz-adv-x="584" d="M529 18q-43 -28 -94 -28q-48 0 -81.5 28t-51.5 83q-33 -111 -119 -111q-71 0 -107.5 68t-36.5 200t36.5 200t107.5 68q85 0 119 -111q18 54 48 82.5t69 28.5q58 0 90 -62t32 -177q0 -23 -2 -41h-212q1 -109 29.5 -162t85.5 -53q35 0 72 24zM183 30q96 0 96 228t-96 228 t-96 -228t96 -228zM416 486q-40 0 -63 -53t-26 -150h168v13q0 93 -20.5 141.5t-58.5 48.5z" />
<glyph unicode="&#x15e;" horiz-adv-x="336" d="M34 60q19 -11 45 -17.5t51 -6.5q59 0 90.5 38t31.5 111q0 49 -18.5 82.5t-62.5 60.5l-21 13q-57 35 -83.5 80t-26.5 107q0 78 44 130t108 52q53 0 100 -26l-14 -39q-45 19 -80 19q-49 0 -79 -36.5t-30 -95.5q0 -49 18.5 -82.5t62.5 -60.5l21 -13q57 -35 83.5 -80 t26.5 -107q0 -91 -45.5 -145t-121.5 -54q-31 0 -62.5 8.5t-51.5 22.5zM68 -165q33 -19 70 -19q25 0 38.5 11.5t13.5 32.5q0 44 -68 44h-31l38 98h46l-23 -61q40 -4 61.5 -25t21.5 -56q0 -39 -25.5 -61t-71.5 -22q-51 0 -83 23z" />
<glyph unicode="&#x15f;" horiz-adv-x="294" d="M37 59q40 -29 91 -29q41 0 65.5 28t24.5 75q0 33 -17 58.5t-53 47.5l-13 8q-54 33 -77.5 66.5t-23.5 77.5q0 60 36.5 97.5t93.5 37.5q46 0 86 -24l-14 -36q-38 20 -70 20q-38 0 -61.5 -24.5t-23.5 -65.5q0 -33 17 -58.5t53 -47.5l13 -8q54 -33 77.5 -66.5t23.5 -77.5 q0 -68 -38 -108t-101 -40q-57 0 -103 33zM59 -167q33 -19 70 -19q55 0 55 46t-70 46h-31l38 96h44l-23 -60q41 -4 63 -25t22 -57q0 -39 -25.5 -61t-71.5 -22q-51 0 -83 23z" />
<glyph unicode="&#x160;" horiz-adv-x="336" d="M34 60q19 -11 45 -17.5t51 -6.5q59 0 90.5 38t31.5 111q0 49 -18.5 82.5t-62.5 60.5l-21 13q-57 35 -83.5 80t-26.5 107q0 78 44 130t108 52q53 0 100 -26l-14 -39q-45 19 -80 19q-49 0 -79 -36.5t-30 -95.5q0 -49 18.5 -82.5t62.5 -60.5l21 -13q57 -35 83.5 -80 t26.5 -107q0 -91 -45.5 -145t-121.5 -54q-31 0 -62.5 8.5t-51.5 22.5zM158 770l-75 109h49l55 -71l55 71h49l-75 -109h-58z" />
<glyph unicode="&#x161;" horiz-adv-x="294" d="M37 59q40 -29 91 -29q41 0 65.5 28t24.5 75q0 33 -17 58.5t-53 47.5l-13 8q-54 33 -77.5 66.5t-23.5 77.5q0 60 36.5 97.5t93.5 37.5q46 0 86 -24l-14 -36q-38 20 -70 20q-38 0 -61.5 -24.5t-23.5 -65.5q0 -33 17 -58.5t53 -47.5l13 -8q54 -33 77.5 -66.5t23.5 -77.5 q0 -68 -38 -108t-101 -40q-57 0 -103 33zM133 611l-74 139h45l55 -96l55 96h45l-74 -139h-52z" />
<glyph unicode="&#x162;" horiz-adv-x="381" d="M166 0v655h-138v45h325v-45h-138v-655h-49zM106 -165q33 -19 70 -19q25 0 38.5 11.5t13.5 32.5q0 44 -68 44h-31l38 98h46l-23 -61q40 -4 61.5 -25t21.5 -56q0 -39 -25.5 -61t-71.5 -22q-51 0 -83 23z" />
<glyph unicode="&#x163;" horiz-adv-x="258" d="M117 479v-346q0 -56 13 -79.5t45 -23.5q23 0 49 13l12 -37q-32 -16 -66 -16q-52 0 -76 33t-24 105v351h-56v37h57l7 129h39v-129h102v-37h-102zM75 -167q33 -19 70 -19q55 0 55 46t-70 46h-31l38 96h44l-23 -60q41 -4 63 -25t22 -57q0 -39 -25.5 -61t-71.5 -22 q-51 0 -83 23z" />
<glyph unicode="&#x174;" horiz-adv-x="536" d="M352 0l-84 549l-84 -549h-61l-91 700h50l72 -638l89 578h51l88 -580l73 640h49l-91 -700h-61zM323 770l-55 71l-55 -71h-49l75 109h58l75 -109h-49z" />
<glyph unicode="&#x175;" horiz-adv-x="471" d="M304 0l-68 429l-69 -429h-44l-99 516h50l71 -444l68 425h46l68 -428l72 447h48l-99 -516h-44zM290 611l-55 96l-55 -96h-45l74 139h52l74 -139h-45z" />
<glyph unicode="&#x176;" horiz-adv-x="357" d="M154 0v255l-132 445h53l104 -387l105 387h51l-132 -445v-255h-49zM233 770l-55 71l-55 -71h-49l75 109h58l75 -109h-49z" />
<glyph unicode="&#x177;" horiz-adv-x="324" d="M27 -155q16 -7 30 -7q19 0 33 15t26 51t24 102l-118 510h51l90 -448l90 448h49l-123 -543q-16 -70 -30 -107t-33 -52.5t-51 -15.5q-25 0 -47 11zM217 611l-55 96l-55 -96h-45l74 139h52l74 -139h-45z" />
<glyph unicode="&#x178;" horiz-adv-x="357" d="M154 0v255l-132 445h53l104 -387l105 387h51l-132 -445v-255h-49zM146 824q0 -16 -10 -25.5t-27 -9.5t-27 9.5t-10 25.5t10 25.5t27 9.5t27 -9.5t10 -25.5zM284 824q0 -16 -10 -25.5t-27 -9.5t-27 9.5t-10 25.5t10 25.5t27 9.5t27 -9.5t10 -25.5z" />
<glyph unicode="&#x17d;" horiz-adv-x="332" d="M23 0v42l226 613h-216v45h268v-42l-226 -613h234v-45h-286zM138 770l-75 109h49l55 -71l55 71h49l-75 -109h-58z" />
<glyph unicode="&#x17e;" horiz-adv-x="275" d="M22 0v32l178 447h-173v37h220v-32l-178 -447h184v-37h-231zM111 611l-74 139h45l55 -96l55 96h45l-74 -139h-52z" />
<glyph unicode="&#x218;" horiz-adv-x="336" d="M34 60q19 -11 45 -17.5t51 -6.5q59 0 90.5 38t31.5 111q0 49 -18.5 82.5t-62.5 60.5l-21 13q-57 35 -83.5 80t-26.5 107q0 78 44 130t108 52q53 0 100 -26l-14 -39q-45 19 -80 19q-49 0 -79 -36.5t-30 -95.5q0 -49 18.5 -82.5t62.5 -60.5l21 -13q57 -35 83.5 -80 t26.5 -107q0 -91 -45.5 -145t-121.5 -54q-31 0 -62.5 8.5t-51.5 22.5zM108 -217q33 45 40 79q-15 2 -23.5 10.5t-8.5 22.5q0 15 9.5 24.5t26.5 9.5q18 0 29 -12t11 -32q0 -27 -16 -60t-44 -62z" />
<glyph unicode="&#x219;" horiz-adv-x="294" d="M37 59q40 -29 91 -29q41 0 65.5 28t24.5 75q0 33 -17 58.5t-53 47.5l-13 8q-54 33 -77.5 66.5t-23.5 77.5q0 60 36.5 97.5t93.5 37.5q46 0 86 -24l-14 -36q-38 20 -70 20q-38 0 -61.5 -24.5t-23.5 -65.5q0 -33 17 -58.5t53 -47.5l13 -8q54 -33 77.5 -66.5t23.5 -77.5 q0 -68 -38 -108t-101 -40q-57 0 -103 33zM99 -218q32 42 40 80q-15 2 -23.5 10.5t-8.5 22.5q0 16 9.5 25t25.5 9q18 0 28.5 -12.5t10.5 -31.5q0 -27 -16 -60t-44 -62z" />
<glyph unicode="&#x21a;" horiz-adv-x="381" d="M166 0v655h-138v45h325v-45h-138v-655h-49zM146 -217q33 45 40 79q-15 2 -23.5 10.5t-8.5 22.5q0 15 9.5 24.5t26.5 9.5q18 0 29 -12t11 -32q0 -27 -16 -60t-44 -62z" />
<glyph unicode="&#x21b;" horiz-adv-x="258" d="M117 479v-346q0 -56 13 -79.5t45 -23.5q23 0 49 13l12 -37q-32 -16 -66 -16q-52 0 -76 33t-24 105v351h-56v37h57l7 129h39v-129h102v-37h-102zM115 -218q32 42 40 80q-15 2 -23.5 10.5t-8.5 22.5q0 16 9.5 25t25.5 9q18 0 28.5 -12.5t10.5 -31.5q0 -27 -16 -60t-44 -62z " />
<glyph unicode="&#x237;" horiz-adv-x="161" d="M-16 -155q16 -7 31 -7q23 0 32.5 15.5t9.5 52.5v610h47v-605q0 -59 -19 -86t-61 -27q-28 0 -49 12z" />
<glyph unicode="&#x2c6;" horiz-adv-x="368" d="M239 611l-55 96l-55 -96h-45l74 139h52l74 -139h-45z" />
<glyph unicode="&#x2c7;" horiz-adv-x="368" d="M158 611l-74 139h45l55 -96l55 96h45l-74 -139h-52z" />
<glyph unicode="&#x2cb;" horiz-adv-x="368" d="M205 611l-87 139h58l74 -139h-45z" />
<glyph unicode="&#x2d8;" horiz-adv-x="368" d="M289 716q-3 -47 -31.5 -75.5t-73.5 -28.5t-73.5 28.5t-31.5 75.5h40q13 -64 65 -64t65 64h40z" />
<glyph unicode="&#x2da;" horiz-adv-x="368" d="M279 686q0 -41 -26.5 -67t-68.5 -26t-68.5 26t-26.5 67t26.5 67t68.5 26t68.5 -26t26.5 -67zM239 686q0 24 -15.5 41t-39.5 17t-39.5 -17t-15.5 -41t15.5 -41t39.5 -17t39.5 17t15.5 41z" />
<glyph unicode="&#x2dc;" horiz-adv-x="368" d="M302 724q-2 -51 -17.5 -74t-46.5 -23q-17 0 -32 8t-42 32q-14 13 -20 15.5t-12 2.5q-12 0 -17 -11t-8 -45h-41q2 51 17.5 74t46.5 23q17 0 32 -8t42 -32q14 -13 20 -15.5t12 -2.5q12 0 17 11t8 45h41z" />
<glyph unicode="&#x300;" horiz-adv-x="0" d="M-18 611l-87 139h58l74 -139h-45z" />
<glyph unicode="&#x301;" horiz-adv-x="0" d="M-27 611l74 139h58l-87 -139h-45z" />
<glyph unicode="&#x302;" horiz-adv-x="0" d="M55 611l-55 96l-55 -96h-45l74 139h52l74 -139h-45z" />
<glyph unicode="&#x303;" horiz-adv-x="0" d="M112 724q-2 -51 -17.5 -74t-46.5 -23q-17 0 -32 8t-42 32q-14 13 -20 15.5t-12 2.5q-12 0 -17 -11t-8 -45h-41q2 51 17.5 74t46.5 23q17 0 32 -8t42 -32q14 -13 20 -15.5t12 -2.5q12 0 17 11t8 45h41z" />
<glyph unicode="&#x306;" horiz-adv-x="0" d="M105 716q-3 -47 -31.5 -75.5t-73.5 -28.5t-73.5 28.5t-31.5 75.5h40q13 -64 65 -64t65 64h40z" />
<glyph unicode="&#x308;" horiz-adv-x="0" d="M-32 681q0 -15 -10.5 -24.5t-26.5 -9.5t-26 9.5t-10 24.5t10.5 24.5t26.5 9.5t26 -9.5t10 -24.5zM105 681q0 -15 -10.5 -24.5t-26.5 -9.5t-26 9.5t-10 24.5t10.5 24.5t26.5 9.5t26 -9.5t10 -24.5z" />
<glyph unicode="&#x30a;" horiz-adv-x="0" d="M95 686q0 -41 -26.5 -67t-68.5 -26t-68.5 26t-26.5 67t26.5 67t68.5 26t68.5 -26t26.5 -67zM55 686q0 24 -15.5 41t-39.5 17t-39.5 -17t-15.5 -41t15.5 -41t39.5 -17t39.5 17t15.5 41z" />
<glyph unicode="&#x30c;" horiz-adv-x="0" d="M-26 611l-74 139h45l55 -96l55 96h45l-74 -139h-52z" />
<glyph unicode="&#x326;" horiz-adv-x="0" d="M-43 -218q32 42 40 80q-15 2 -23.5 10.5t-8.5 22.5q0 16 9.5 25t25.5 9q18 0 28.5 -12.5t10.5 -31.5q0 -27 -16 -60t-44 -62z" />
<glyph unicode="&#x327;" horiz-adv-x="0" d="M-83 -167q33 -19 70 -19q55 0 55 46t-70 46h-31l38 96h44l-23 -60q41 -4 63 -25t22 -57q0 -39 -25.5 -61t-71.5 -22q-51 0 -83 23z" />
<glyph unicode="&#x1e80;" horiz-adv-x="536" d="M352 0l-84 549l-84 -549h-61l-91 700h50l72 -638l89 578h51l88 -580l73 640h49l-91 -700h-61zM247 770l-100 109h66l84 -109h-50z" />
<glyph unicode="&#x1e81;" horiz-adv-x="471" d="M304 0l-68 429l-69 -429h-44l-99 516h50l71 -444l68 425h46l68 -428l72 447h48l-99 -516h-44zM217 611l-87 139h58l74 -139h-45z" />
<glyph unicode="&#x1e82;" horiz-adv-x="536" d="M352 0l-84 549l-84 -549h-61l-91 700h50l72 -638l89 578h51l88 -580l73 640h49l-91 -700h-61zM239 770l84 109h66l-100 -109h-50z" />
<glyph unicode="&#x1e83;" horiz-adv-x="471" d="M304 0l-68 429l-69 -429h-44l-99 516h50l71 -444l68 425h46l68 -428l72 447h48l-99 -516h-44zM208 611l74 139h58l-87 -139h-45z" />
<glyph unicode="&#x1e84;" horiz-adv-x="536" d="M352 0l-84 549l-84 -549h-61l-91 700h50l72 -638l89 578h51l88 -580l73 640h49l-91 -700h-61zM236 824q0 -16 -10 -25.5t-27 -9.5t-27 9.5t-10 25.5t10 25.5t27 9.5t27 -9.5t10 -25.5zM374 824q0 -16 -10 -25.5t-27 -9.5t-27 9.5t-10 25.5t10 25.5t27 9.5t27 -9.5 t10 -25.5z" />
<glyph unicode="&#x1e85;" horiz-adv-x="471" d="M304 0l-68 429l-69 -429h-44l-99 516h50l71 -444l68 425h46l68 -428l72 447h48l-99 -516h-44zM203 681q0 -15 -10.5 -24.5t-26.5 -9.5t-26 9.5t-10 24.5t10.5 24.5t26.5 9.5t26 -9.5t10 -24.5zM340 681q0 -15 -10.5 -24.5t-26.5 -9.5t-26 9.5t-10 24.5t10.5 24.5 t26.5 9.5t26 -9.5t10 -24.5z" />
<glyph unicode="&#x1e9e;" horiz-adv-x="413" d="M155 57q35 -23 77 -23q48 0 77.5 45t29.5 119q0 72 -29 112.5t-81 40.5q-14 0 -28 -2v41l120 243q-47 33 -96 33q-62 0 -91.5 -51t-29.5 -156v-459h-47v459q0 251 167 251q33 0 69.5 -13t66.5 -35v-45l-111 -224q63 -3 101 -56.5t38 -138.5q0 -61 -20.5 -109t-55 -73.5 t-77.5 -25.5q-53 0 -94 28z" />
<glyph unicode="&#x1ef2;" horiz-adv-x="357" d="M154 0v255l-132 445h53l104 -387l105 387h51l-132 -445v-255h-49zM157 770l-100 109h66l84 -109h-50z" />
<glyph unicode="&#x1ef3;" horiz-adv-x="324" d="M27 -155q16 -7 30 -7q19 0 33 15t26 51t24 102l-118 510h51l90 -448l90 448h49l-123 -543q-16 -70 -30 -107t-33 -52.5t-51 -15.5q-25 0 -47 11zM144 611l-87 139h58l74 -139h-45z" />
<glyph unicode="&#x2000;" horiz-adv-x="320" />
<glyph unicode="&#x2001;" horiz-adv-x="640" />
<glyph unicode="&#x2002;" horiz-adv-x="320" />
<glyph unicode="&#x2003;" horiz-adv-x="640" />
<glyph unicode="&#x2004;" horiz-adv-x="213" />
<glyph unicode="&#x2005;" horiz-adv-x="160" />
<glyph unicode="&#x2006;" horiz-adv-x="106" />
<glyph unicode="&#x2007;" horiz-adv-x="382" />
<glyph unicode="&#x2008;" horiz-adv-x="146" />
<glyph unicode="&#x2009;" horiz-adv-x="128" />
<glyph unicode="&#x200a;" horiz-adv-x="40" />
<glyph unicode="&#x200b;" horiz-adv-x="0" />
<glyph unicode="&#x2013;" horiz-adv-x="320" d="M0 254v40h320v-40h-320z" />
<glyph unicode="&#x2014;" horiz-adv-x="640" d="M0 254v40h640v-40h-640z" />
<glyph unicode="&#x2018;" horiz-adv-x="133" d="M126 693q-53 -47 -60 -97q16 -1 25.5 -11.5t9.5 -24.5q0 -16 -10.5 -26.5t-25.5 -10.5q-18 0 -30 12.5t-12 32.5q0 37 22.5 76.5t60.5 69.5z" />
<glyph unicode="&#x2019;" horiz-adv-x="133" d="M7 543q53 47 60 97q-16 1 -25.5 11.5t-9.5 24.5q0 16 10.5 26.5t25.5 10.5q18 0 30 -12.5t12 -32.5q0 -37 -22.5 -76.5t-60.5 -69.5z" />
<glyph unicode="&#x201a;" horiz-adv-x="133" d="M7 -104q53 47 60 97q-16 1 -25.5 11.5t-9.5 24.5q0 16 10.5 26.5t25.5 10.5q18 0 30 -12.5t12 -32.5q0 -37 -22.5 -76.5t-60.5 -69.5z" />
<glyph unicode="&#x201c;" horiz-adv-x="248" d="M126 693q-53 -47 -60 -97q16 -1 25.5 -11.5t9.5 -24.5q0 -16 -10.5 -26.5t-25.5 -10.5q-18 0 -30 12.5t-12 32.5q0 37 22.5 76.5t60.5 69.5zM241 693q-53 -47 -60 -97q16 -1 25.5 -11.5t9.5 -24.5q0 -16 -10.5 -26.5t-25.5 -10.5q-18 0 -30 12.5t-12 32.5q0 37 22.5 76.5 t60.5 69.5z" />
<glyph unicode="&#x201d;" horiz-adv-x="248" d="M7 543q53 47 60 97q-16 1 -25.5 11.5t-9.5 24.5q0 16 10.5 26.5t25.5 10.5q18 0 30 -12.5t12 -32.5q0 -37 -22.5 -76.5t-60.5 -69.5zM122 543q53 47 60 97q-16 1 -25.5 11.5t-9.5 24.5q0 16 10.5 26.5t25.5 10.5q18 0 30 -12.5t12 -32.5q0 -37 -22.5 -76.5t-60.5 -69.5z " />
<glyph unicode="&#x201e;" horiz-adv-x="248" d="M7 -104q53 47 60 97q-16 1 -25.5 11.5t-9.5 24.5q0 16 10.5 26.5t25.5 10.5q18 0 30 -12.5t12 -32.5q0 -37 -22.5 -76.5t-60.5 -69.5zM122 -104q53 47 60 97q-16 1 -25.5 11.5t-9.5 24.5q0 16 10.5 26.5t25.5 10.5q18 0 30 -12.5t12 -32.5q0 -37 -22.5 -76.5t-60.5 -69.5 z" />
<glyph unicode="&#x2020;" horiz-adv-x="295" d="M124 -116v562h-94v39h94v245h47v-245h94v-39h-94v-562h-47z" />
<glyph unicode="&#x2021;" horiz-adv-x="295" d="M124 -116v245h-94v39h94v278h-94v39h94v245h47v-245h94v-39h-94v-278h94v-39h-94v-245h-47z" />
<glyph unicode="&#x2022;" horiz-adv-x="212" d="M186 288q0 -32 -23.5 -54.5t-56.5 -22.5t-56.5 22.5t-23.5 54.5t23.5 54.5t56.5 22.5t56.5 -22.5t23.5 -54.5z" />
<glyph unicode="&#x2026;" horiz-adv-x="640" d="M145 28q0 -16 -11 -27t-28 -11t-28 11t-11 27t11 27t28 11t28 -11t11 -27zM359 28q0 -16 -11 -27t-28 -11t-28 11t-11 27t11 27t28 11t28 -11t11 -27zM573 28q0 -16 -11 -27t-28 -11t-28 11t-11 27t11 27t28 11t28 -11t11 -27z" />
<glyph unicode="&#x2032;" horiz-adv-x="134" d="M21 509l33 191h59l-53 -191h-39z" />
<glyph unicode="&#x2033;" horiz-adv-x="249" d="M21 509l33 191h59l-53 -191h-39zM136 509l33 191h59l-53 -191h-39z" />
<glyph unicode="&#x2039;" horiz-adv-x="183" d="M112 107l-93 173l93 173h46l-92 -173l92 -173h-46z" />
<glyph unicode="&#x203a;" horiz-adv-x="183" d="M25 107l92 173l-92 173h46l93 -173l-93 -173h-46z" />
<glyph unicode="&#x2044;" horiz-adv-x="66" d="M-122 0l266 690h44l-266 -690h-44z" />
<glyph unicode="&#x2070;" d="M136 448q28 0 41 39t13 120v16q0 81 -13 120t-41 39t-41 -39t-13 -120v-16q0 -81 13 -120t41 -39zM136 410q-97 0 -97 197v16q0 197 97 197t97 -197v-16q0 -197 -97 -197z" />
<glyph unicode="&#x2074;" d="M167 420v89h-133v35l130 266h40v-265h30v-36h-30v-89h-37zM167 545v196l-95 -196h95z" />
<glyph unicode="&#x2075;" d="M52 469q31 -21 59 -21q66 0 66 85q0 44 -19 64t-58 20q-14 0 -44 -1l8 194h140v-39h-106l-4 -119q12 1 24 1q46 0 73.5 -33t27.5 -87q0 -56 -28.5 -89.5t-76.5 -33.5q-43 0 -78 26z" />
<glyph unicode="&#x2076;" d="M158 782q-34 0 -51 -32t-21 -100q30 8 53 8q44 0 70 -32.5t26 -87.5q0 -57 -26 -92.5t-67 -35.5q-48 0 -73.5 47t-25.5 135v14q0 102 29 158t83 56q17 0 31.5 -4t32.5 -13l-14 -34q-26 13 -47 13zM131 622q-22 0 -46 -8v-24q0 -142 57 -142q24 0 37.5 23t13.5 65 q0 86 -62 86z" />
<glyph unicode="&#x2077;" d="M82 420v36q0 42 15 94t60 162l24 59h-125v39h166v-35l-33 -85q-40 -103 -52.5 -148t-12.5 -86v-36h-42z" />
<glyph unicode="&#x2078;" d="M226 719q0 -30 -12.5 -55.5t-35.5 -41.5q26 -18 40 -45.5t14 -59.5q0 -49 -26 -78t-71 -29q-44 0 -69.5 29t-25.5 79q0 36 14.5 65t40.5 44q-49 34 -49 93q0 45 24.5 72.5t64.5 27.5q41 0 66 -28t25 -73zM121 614q-40 -30 -40 -95q0 -35 14 -54t41 -19q26 0 40.5 19 t14.5 56q0 63 -51 85zM87 718q0 -53 45 -73l20 -9q33 30 33 84q0 31 -13 47.5t-37 16.5q-23 0 -35.5 -17t-12.5 -49z" />
<glyph unicode="&#x2079;" d="M57 466q28 -18 57 -18q33 0 50 31.5t21 100.5q-24 -8 -52 -8q-44 0 -70 32.5t-26 87.5q0 57 26 92.5t67 35.5q48 0 73.5 -47t25.5 -135v-14q0 -104 -29.5 -159t-84.5 -55q-41 0 -72 23zM141 608q25 0 46 7v25q0 142 -57 142q-24 0 -37.5 -23t-13.5 -65q0 -86 62 -86z" />
<glyph unicode="&#x2080;" d="M136 -92q28 0 41 39t13 120v16q0 81 -13 120t-41 39t-41 -39t-13 -120v-16q0 -81 13 -120t41 -39zM136 -130q-97 0 -97 197v16q0 197 97 197t97 -197v-16q0 -197 -97 -197z" />
<glyph unicode="&#x2081;" d="M138 -120v336l-68 -57l-22 30l95 81h37v-390h-42z" />
<glyph unicode="&#x2082;" d="M55 -120v16q0 47 5 75t18.5 52t46.5 59q29 31 40.5 53.5t11.5 48.5q0 27 -13.5 42.5t-37.5 15.5q-29 0 -58 -21l-17 30q16 13 37.5 21t41.5 8q39 0 64 -26.5t25 -67.5q0 -32 -15.5 -62t-54.5 -72q-33 -35 -42 -59t-10 -74h122v-39h-164z" />
<glyph unicode="&#x2083;" d="M51 -71q32 -21 63 -21q29 0 46 20t17 56q0 37 -16.5 59.5t-44.5 22.5h-34v36h33q25 0 40 19.5t15 53.5q0 32 -13.5 49.5t-37.5 17.5q-25 0 -58 -23l-17 31q38 30 78 30t65 -28.5t25 -74.5q0 -30 -13 -54t-37 -37q27 -13 42 -40t15 -64q0 -50 -28 -81t-72 -31 q-47 0 -83 26z" />
<glyph unicode="&#x2084;" d="M167 -120v89h-133v35l130 266h40v-265h30v-36h-30v-89h-37zM167 5v196l-95 -196h95z" />
<glyph unicode="&#x2085;" d="M52 -71q31 -21 59 -21q66 0 66 85q0 44 -19 64t-58 20q-14 0 -44 -1l8 194h140v-39h-106l-4 -119q12 1 24 1q46 0 73.5 -33t27.5 -87q0 -56 -28.5 -89.5t-76.5 -33.5q-43 0 -78 26z" />
<glyph unicode="&#x2086;" d="M158 242q-34 0 -51 -32t-21 -100q30 8 53 8q44 0 70 -32.5t26 -87.5q0 -57 -26 -92.5t-67 -35.5q-48 0 -73.5 47t-25.5 135v14q0 102 29 158t83 56q17 0 31.5 -4t32.5 -13l-14 -34q-26 13 -47 13zM131 82q-22 0 -46 -8v-24q0 -142 57 -142q24 0 37.5 23t13.5 65 q0 86 -62 86z" />
<glyph unicode="&#x2087;" d="M82 -120v36q0 42 15 94t60 162l24 59h-125v39h166v-35l-33 -85q-40 -103 -52.5 -148t-12.5 -86v-36h-42z" />
<glyph unicode="&#x2088;" d="M226 179q0 -30 -12.5 -55.5t-35.5 -41.5q26 -18 40 -45.5t14 -59.5q0 -49 -26 -78t-71 -29q-44 0 -69.5 29t-25.5 79q0 36 14.5 65t40.5 44q-49 34 -49 93q0 45 24.5 72.5t64.5 27.5q41 0 66 -28t25 -73zM121 74q-40 -30 -40 -95q0 -35 14 -54t41 -19q26 0 40.5 19 t14.5 56q0 63 -51 85zM87 178q0 -53 45 -73l20 -9q33 30 33 84q0 31 -13 47.5t-37 16.5q-23 0 -35.5 -17t-12.5 -49z" />
<glyph unicode="&#x2089;" d="M57 -74q28 -18 57 -18q33 0 50 31.5t21 100.5q-24 -8 -52 -8q-44 0 -70 32.5t-26 87.5q0 57 26 92.5t67 35.5q48 0 73.5 -47t25.5 -135v-14q0 -104 -29.5 -159t-84.5 -55q-41 0 -72 23zM141 68q25 0 46 7v25q0 142 -57 142q-24 0 -37.5 -23t-13.5 -65q0 -86 62 -86z" />
<glyph unicode="&#x20ac;" horiz-adv-x="382" d="M129 248q12 -103 48 -159t90 -56q39 0 77 21l13 -37q-40 -27 -94 -27q-75 0 -122.5 67t-61.5 191h-50l7 42h39q-1 19 -1 60v25.5t1 25.5h-46l7 42h42q14 124 62 190.5t123 66.5q51 0 90 -23l-13 -37q-38 17 -73 17q-55 0 -91.5 -55.5t-47.5 -158.5h164l-7 -42h-160 q-1 -13 -1 -25.5v-25.5q0 -22 2 -60h142l-7 -42h-132z" />
<glyph unicode="&#x20ba;" horiz-adv-x="382" d="M129 247v-203h23q71 0 107.5 60t36.5 177h48q0 -281 -192 -281h-71v224l-53 -25v44l53 25v109l-53 -25v44l53 25v269h48v-246l107 52v-44l-107 -52v-109l107 52v-44z" />
<glyph unicode="&#x20bd;" horiz-adv-x="382" d="M97 0v132h-66v42h66v110h-66v42h66v364h79q82 0 126.5 -53t44.5 -150t-44.5 -150t-126.5 -53h-31v-110h118v-42h-118v-132h-48zM145 326h28q124 0 124 161t-124 161h-28v-322z" />
<glyph unicode="&#x2122;" horiz-adv-x="490" d="M430 316v293l-61 -244h-39l-61 240v-289h-40v384h49l72 -282l71 282h49v-384h-40zM76 316v344h-71v40h184v-40h-71v-344h-42z" />
<glyph unicode="&#x2212;" horiz-adv-x="382" d="M40 323v43h301v-43h-301z" />
<glyph unicode="&#x25fc;" horiz-adv-x="515" d="M0 515h515v-515h-515v515z" />
<glyph unicode="&#xfeff;" horiz-adv-x="0" />
<glyph horiz-adv-x="382" d="M191 33q47 0 69 74.5t22 230.5v14q0 156 -22 230.5t-69 74.5t-69 -74.5t-22 -230.5v-14q0 -156 22 -230.5t69 -74.5zM191 -10q-140 0 -140 348v14q0 348 140 348t140 -348v-14q0 -348 -140 -348z" />
<glyph horiz-adv-x="382" d="M91 0v44h98v586l-95 -79l-28 33l127 106h44v-646h92v-44h-238z" />
<glyph horiz-adv-x="382" d="M71 0v34q0 78 8 132.5t27.5 96.5t57.5 86q60 68 80.5 108.5t20.5 90.5t-24 79.5t-65 29.5q-21 0 -45.5 -11.5t-47.5 -33.5l-23 33q26 26 58 40.5t65 14.5q58 0 94.5 -43t36.5 -112q0 -38 -9 -67.5t-32.5 -65.5t-74.5 -97q-34 -40 -50 -71.5t-23 -77t-7 -122.5h189v-44 h-236z" />
<glyph horiz-adv-x="382" d="M76 57q35 -24 80 -24q47 0 75.5 42.5t28.5 114.5q0 73 -29 111.5t-85 38.5h-36v44h36q45 0 73 39.5t28 105.5q0 59 -25 93.5t-66 34.5q-35 0 -73 -28l-22 34q21 17 48 27t54 10q40 0 70.5 -22.5t46.5 -61.5t16 -87q0 -57 -23.5 -100t-65.5 -64q50 -18 76 -63t26 -112 q0 -92 -41 -146t-112 -54q-55 0 -98 30z" />
<glyph horiz-adv-x="382" d="M241 0v178h-199v40l193 472h53v-470h48v-42h-48v-178h-47zM241 220v380l-155 -380h155z" />
<glyph horiz-adv-x="382" d="M79 57q35 -24 80 -24q51 0 80.5 45t29.5 124t-31 119.5t-91 40.5q-27 0 -60 -1l15 329h180v-44h-140l-11 -242q13 1 32 1q71 0 113 -55t42 -150t-43.5 -152.5t-115.5 -57.5q-55 0 -98 30z" />
<glyph horiz-adv-x="382" d="M223 657q-54 0 -80 -59t-32 -195q42 10 79 10q148 0 148 -204q0 -103 -36 -161t-101 -58q-74 0 -107.5 74t-33.5 236v26q0 196 38.5 285t123.5 89q46 0 95 -30l-16 -38q-41 25 -78 25zM181 372q-30 0 -72 -10v-57q0 -146 21.5 -209t72.5 -63q41 0 63.5 45.5t22.5 128.5 q0 86 -26 125.5t-82 39.5z" />
<glyph horiz-adv-x="382" d="M117 0v67q0 42 4.5 80t17 87t51.5 173l75 239h-196v44h243v-41l-75 -242q-37 -120 -49 -167.5t-17.5 -86.5t-5.5 -86v-67h-48z" />
<glyph horiz-adv-x="382" d="M319 524q0 -109 -72 -167q38 -24 60.5 -72.5t22.5 -109.5q0 -87 -37 -136t-103 -49q-65 0 -101.5 49t-36.5 138q0 64 22.5 112.5t64.5 74.5q-36 22 -56.5 64.5t-20.5 97.5q0 80 34.5 127t93.5 47q60 0 94.5 -47t34.5 -129zM192 32q43 0 66 38.5t23 110.5q0 122 -83 157 l-24 10q-73 -53 -73 -170q0 -70 23.5 -108t67.5 -38zM110 522q0 -106 75 -137l27 -11q59 53 59 151q0 64 -21.5 98.5t-59.5 34.5t-59 -35.5t-21 -100.5z" />
<glyph horiz-adv-x="382" d="M75 58q41 -25 78 -25q39 0 63 24t37 80t17 155q-36 -10 -79 -10q-148 0 -148 199q0 103 36 161t101 58q74 0 107.5 -74t33.5 -236v-21q0 -137 -16 -219.5t-52.5 -121t-98.5 -38.5q-46 0 -95 30zM200 323q35 0 71 9q1 14 1 28.5v29.5q0 143 -21.5 205t-72.5 62 q-41 0 -63.5 -45.5t-22.5 -128.5t26 -121.5t82 -38.5z" />
<glyph d="M136 28q28 0 41 39t13 120v16q0 81 -13 120t-41 39t-41 -39t-13 -120v-16q0 -81 13 -120t41 -39zM136 -10q-97 0 -97 197v16q0 197 97 197t97 -197v-16q0 -197 -97 -197z" />
<glyph d="M138 0v336l-68 -57l-22 30l95 81h37v-390h-42z" />
<glyph d="M55 0v16q0 47 5 75t18.5 52t46.5 59q29 31 40.5 53.5t11.5 48.5q0 27 -13.5 42.5t-37.5 15.5q-29 0 -58 -21l-17 30q16 13 37.5 21t41.5 8q39 0 64 -26.5t25 -67.5q0 -32 -15.5 -62t-54.5 -72q-33 -35 -42 -59t-10 -74h122v-39h-164z" />
<glyph d="M51 49q32 -21 63 -21q29 0 46 20t17 56q0 37 -16.5 59.5t-44.5 22.5h-34v36h33q25 0 40 19.5t15 53.5q0 32 -13.5 49.5t-37.5 17.5q-25 0 -58 -23l-17 31q38 30 78 30t65 -28.5t25 -74.5q0 -30 -13 -54t-37 -37q27 -13 42 -40t15 -64q0 -50 -28 -81t-72 -31q-47 0 -83 26 z" />
<glyph d="M167 0v89h-133v35l130 266h40v-265h30v-36h-30v-89h-37zM167 125v196l-95 -196h95z" />
<glyph d="M52 49q31 -21 59 -21q66 0 66 85q0 44 -19 64t-58 20q-14 0 -44 -1l8 194h140v-39h-106l-4 -119q12 1 24 1q46 0 73.5 -33t27.5 -87q0 -56 -28.5 -89.5t-76.5 -33.5q-43 0 -78 26z" />
<glyph d="M158 362q-34 0 -51 -32t-21 -100q30 8 53 8q44 0 70 -32.5t26 -87.5q0 -57 -26 -92.5t-67 -35.5q-48 0 -73.5 47t-25.5 135v14q0 102 29 158t83 56q17 0 31.5 -4t32.5 -13l-14 -34q-26 13 -47 13zM131 202q-22 0 -46 -8v-24q0 -142 57 -142q24 0 37.5 23t13.5 65 q0 86 -62 86z" />
<glyph d="M82 0v36q0 42 15 94t60 162l24 59h-125v39h166v-35l-33 -85q-40 -103 -52.5 -148t-12.5 -86v-36h-42z" />
<glyph d="M226 299q0 -30 -12.5 -55.5t-35.5 -41.5q26 -18 40 -45.5t14 -59.5q0 -49 -26 -78t-71 -29q-44 0 -69.5 29t-25.5 79q0 36 14.5 65t40.5 44q-49 34 -49 93q0 45 24.5 72.5t64.5 27.5q41 0 66 -28t25 -73zM121 194q-40 -30 -40 -95q0 -35 14 -54t41 -19q26 0 40.5 19 t14.5 56q0 63 -51 85zM87 298q0 -53 45 -73l20 -9q33 30 33 84q0 31 -13 47.5t-37 16.5q-23 0 -35.5 -17t-12.5 -49z" />
<glyph d="M57 46q28 -18 57 -18q33 0 50 31.5t21 100.5q-24 -8 -52 -8q-44 0 -70 32.5t-26 87.5q0 57 26 92.5t67 35.5q48 0 73.5 -47t25.5 -135v-14q0 -104 -29.5 -159t-84.5 -55q-41 0 -72 23zM141 188q25 0 46 7v25q0 142 -57 142q-24 0 -37.5 -23t-13.5 -65q0 -86 62 -86z" />
<glyph d="M136 328q28 0 41 39t13 120v16q0 81 -13 120t-41 39t-41 -39t-13 -120v-16q0 -81 13 -120t41 -39zM136 290q-97 0 -97 197v16q0 197 97 197t97 -197v-16q0 -197 -97 -197z" />
<glyph d="M138 300v336l-68 -57l-22 30l95 81h37v-390h-42z" />
<glyph d="M55 300v16q0 47 5 75t18.5 52t46.5 59q29 31 40.5 53.5t11.5 48.5q0 27 -13.5 42.5t-37.5 15.5q-29 0 -58 -21l-17 30q16 13 37.5 21t41.5 8q39 0 64 -26.5t25 -67.5q0 -32 -15.5 -62t-54.5 -72q-33 -35 -42 -59t-10 -74h122v-39h-164z" />
<glyph d="M51 349q32 -21 63 -21q29 0 46 20t17 56q0 37 -16.5 59.5t-44.5 22.5h-34v36h33q25 0 40 19.5t15 53.5q0 32 -13.5 49.5t-37.5 17.5q-25 0 -58 -23l-17 31q38 30 78 30t65 -28.5t25 -74.5q0 -30 -13 -54t-37 -37q27 -13 42 -40t15 -64q0 -50 -28 -81t-72 -31 q-47 0 -83 26z" />
<glyph d="M167 300v89h-133v35l130 266h40v-265h30v-36h-30v-89h-37zM167 425v196l-95 -196h95z" />
<glyph d="M52 349q31 -21 59 -21q66 0 66 85q0 44 -19 64t-58 20q-14 0 -44 -1l8 194h140v-39h-106l-4 -119q12 1 24 1q46 0 73.5 -33t27.5 -87q0 -56 -28.5 -89.5t-76.5 -33.5q-43 0 -78 26z" />
<glyph d="M158 662q-34 0 -51 -32t-21 -100q30 8 53 8q44 0 70 -32.5t26 -87.5q0 -57 -26 -92.5t-67 -35.5q-48 0 -73.5 47t-25.5 135v14q0 102 29 158t83 56q17 0 31.5 -4t32.5 -13l-14 -34q-26 13 -47 13zM131 502q-22 0 -46 -8v-24q0 -142 57 -142q24 0 37.5 23t13.5 65 q0 86 -62 86z" />
<glyph d="M82 300v36q0 42 15 94t60 162l24 59h-125v39h166v-35l-33 -85q-40 -103 -52.5 -148t-12.5 -86v-36h-42z" />
<glyph d="M226 599q0 -30 -12.5 -55.5t-35.5 -41.5q26 -18 40 -45.5t14 -59.5q0 -49 -26 -78t-71 -29q-44 0 -69.5 29t-25.5 79q0 36 14.5 65t40.5 44q-49 34 -49 93q0 45 24.5 72.5t64.5 27.5q41 0 66 -28t25 -73zM121 494q-40 -30 -40 -95q0 -35 14 -54t41 -19q26 0 40.5 19 t14.5 56q0 63 -51 85zM87 598q0 -53 45 -73l20 -9q33 30 33 84q0 31 -13 47.5t-37 16.5q-23 0 -35.5 -17t-12.5 -49z" />
<glyph d="M57 346q28 -18 57 -18q33 0 50 31.5t21 100.5q-24 -8 -52 -8q-44 0 -70 32.5t-26 87.5q0 57 26 92.5t67 35.5q48 0 73.5 -47t25.5 -135v-14q0 -104 -29.5 -159t-84.5 -55q-41 0 -72 23zM141 488q25 0 46 7v25q0 142 -57 142q-24 0 -37.5 -23t-13.5 -65q0 -86 62 -86z" />
<glyph d="M119 -190v61q-51 4 -79 25l12 30q31 -20 67 -22v163q-42 21 -61 47.5t-19 62.5q0 38 22 66.5t59 34.5v62h33v-61q32 -3 63 -20l-10 -29q-34 15 -53 16v-154q43 -21 62.5 -47.5t19.5 -62.5q0 -44 -22.5 -73.5t-60.5 -36.5v-62h-33zM195 -18q0 25 -10.5 41t-32.5 28v-143 q21 7 32 26t11 48zM79 177q0 -25 9.5 -41t31.5 -28v134q-19 -6 -30 -24t-11 -41z" />
<glyph d="M139 -128q-77 14 -77 150q0 132 77 149v62h33v-61q22 -3 42 -15l-10 -29q-18 9 -32 10v-234q21 3 35 10l10 -29q-18 -11 -45 -14v-61h-33v62zM102 22q0 -53 8.5 -80t28.5 -35v228q-37 -19 -37 -113z" />
<glyph horiz-adv-x="386" d="M96 -120l157 390h37l-157 -390h-37zM294 -100q14 0 22 22t8 64v5q0 42 -8 64t-22 22t-22 -22t-8 -64v-5q0 -42 8 -64t22 -22zM294 -130q-30 0 -48 31t-18 85v5q0 54 18 85t48 31t48 -31t18 -85v-5q0 -54 -18 -85t-48 -31zM92 73q14 0 22 22t8 64v5q0 42 -8 64t-22 22 t-22 -22t-8 -64v-5q0 -42 8 -64t22 -22zM92 43q-30 0 -48 31t-18 85v5q0 54 18 85t48 31t48 -31t18 -85v-5q0 -54 -18 -85t-48 -31z" />
<glyph d="M50 -120l14 115h-34v31h38l13 98h-43v31h47l15 115h35l-15 -115h53l14 115h35l-14 -115h34v-31h-38l-13 -98h43v-31h-47l-15 -115h-35l15 115h-53l-14 -115h-35zM103 26h53l13 98h-53z" />
<glyph d="M119 350v61q-51 4 -79 25l12 30q31 -20 67 -22v163q-42 21 -61 47.5t-19 62.5q0 38 22 66.5t59 34.5v62h33v-61q32 -3 63 -20l-10 -29q-34 15 -53 16v-154q43 -21 62.5 -47.5t19.5 -62.5q0 -44 -22.5 -73.5t-60.5 -36.5v-62h-33zM195 522q0 25 -10.5 41t-32.5 28v-143 q21 7 32 26t11 48zM79 717q0 -25 9.5 -41t31.5 -28v134q-19 -6 -30 -24t-11 -41z" />
<glyph d="M139 412q-77 14 -77 150q0 132 77 149v62h33v-61q22 -3 42 -15l-10 -29q-18 9 -32 10v-234q21 3 35 10l10 -29q-18 -11 -45 -14v-61h-33v62zM102 562q0 -53 8.5 -80t28.5 -35v228q-37 -19 -37 -113z" />
<glyph horiz-adv-x="386" d="M96 420l157 390h37l-157 -390h-37zM294 440q14 0 22 22t8 64v5q0 42 -8 64t-22 22t-22 -22t-8 -64v-5q0 -42 8 -64t22 -22zM294 410q-30 0 -48 31t-18 85v5q0 54 18 85t48 31t48 -31t18 -85v-5q0 -54 -18 -85t-48 -31zM92 613q14 0 22 22t8 64v5q0 42 -8 64t-22 22 t-22 -22t-8 -64v-5q0 -42 8 -64t22 -22zM92 583q-30 0 -48 31t-18 85v5q0 54 18 85t48 31t48 -31t18 -85v-5q0 -54 -18 -85t-48 -31z" />
<glyph d="M50 420l14 115h-34v31h38l13 98h-43v31h47l15 115h35l-15 -115h53l14 115h35l-14 -115h34v-31h-38l-13 -98h43v-31h-47l-15 -115h-35l15 115h-53l-14 -115h-35zM103 566h53l13 98h-53z" />
<glyph d="M119 -70v61q-51 4 -79 25l12 30q31 -20 67 -22v163q-42 21 -61 47.5t-19 62.5q0 38 22 66.5t59 34.5v62h33v-61q32 -3 63 -20l-10 -29q-34 15 -53 16v-154q43 -21 62.5 -47.5t19.5 -62.5q0 -44 -22.5 -73.5t-60.5 -36.5v-62h-33zM195 102q0 25 -10.5 41t-32.5 28v-143 q21 7 32 26t11 48zM79 297q0 -25 9.5 -41t31.5 -28v134q-19 -6 -30 -24t-11 -41z" />
<glyph d="M139 -8q-77 14 -77 150q0 132 77 149v62h33v-61q22 -3 42 -15l-10 -29q-18 9 -32 10v-234q21 3 35 10l10 -29q-18 -11 -45 -14v-61h-33v62zM102 142q0 -53 8.5 -80t28.5 -35v228q-37 -19 -37 -113z" />
<glyph horiz-adv-x="386" d="M96 0l157 390h37l-157 -390h-37zM294 20q14 0 22 22t8 64v5q0 42 -8 64t-22 22t-22 -22t-8 -64v-5q0 -42 8 -64t22 -22zM294 -10q-30 0 -48 31t-18 85v5q0 54 18 85t48 31t48 -31t18 -85v-5q0 -54 -18 -85t-48 -31zM92 193q14 0 22 22t8 64v5q0 42 -8 64t-22 22t-22 -22 t-8 -64v-5q0 -42 8 -64t22 -22zM92 163q-30 0 -48 31t-18 85v5q0 54 18 85t48 31t48 -31t18 -85v-5q0 -54 -18 -85t-48 -31z" />
<glyph d="M50 0l14 115h-34v31h38l13 98h-43v31h47l15 115h35l-15 -115h53l14 115h35l-14 -115h34v-31h-38l-13 -98h43v-31h-47l-15 -115h-35l15 115h-53l-14 -115h-35zM103 146h53l13 98h-53z" />
<glyph d="M119 230v61q-51 4 -79 25l12 30q31 -20 67 -22v163q-42 21 -61 47.5t-19 62.5q0 38 22 66.5t59 34.5v62h33v-61q32 -3 63 -20l-10 -29q-34 15 -53 16v-154q43 -21 62.5 -47.5t19.5 -62.5q0 -44 -22.5 -73.5t-60.5 -36.5v-62h-33zM195 402q0 25 -10.5 41t-32.5 28v-143 q21 7 32 26t11 48zM79 597q0 -25 9.5 -41t31.5 -28v134q-19 -6 -30 -24t-11 -41z" />
<glyph d="M139 292q-77 14 -77 150q0 132 77 149v62h33v-61q22 -3 42 -15l-10 -29q-18 9 -32 10v-234q21 3 35 10l10 -29q-18 -11 -45 -14v-61h-33v62zM102 442q0 -53 8.5 -80t28.5 -35v228q-37 -19 -37 -113z" />
<glyph horiz-adv-x="386" d="M96 300l157 390h37l-157 -390h-37zM294 320q14 0 22 22t8 64v5q0 42 -8 64t-22 22t-22 -22t-8 -64v-5q0 -42 8 -64t22 -22zM294 290q-30 0 -48 31t-18 85v5q0 54 18 85t48 31t48 -31t18 -85v-5q0 -54 -18 -85t-48 -31zM92 493q14 0 22 22t8 64v5q0 42 -8 64t-22 22 t-22 -22t-8 -64v-5q0 -42 8 -64t22 -22zM92 463q-30 0 -48 31t-18 85v5q0 54 18 85t48 31t48 -31t18 -85v-5q0 -54 -18 -85t-48 -31z" />
<glyph d="M50 300l14 115h-34v31h38l13 98h-43v31h47l15 115h35l-15 -115h53l14 115h35l-14 -115h34v-31h-38l-13 -98h43v-31h-47l-15 -115h-35l15 115h-53l-14 -115h-35zM103 446h53l13 98h-53z" />
<glyph horiz-adv-x="140" d="M106 370q0 -15 -10 -24.5t-26 -9.5t-26 9.5t-10 24.5t10 24.5t26 9.5t26 -9.5t10 -24.5z" />
<glyph horiz-adv-x="140" d="M106 390q0 -15 -10 -24.5t-26 -9.5t-26 9.5t-10 24.5t10 24.5t26 9.5t26 -9.5t10 -24.5z" />
<glyph horiz-adv-x="444" d="M61 0v700h49v-700h-49zM198 53q37 -17 65 -17q40 0 57.5 30t17.5 97v537h49v-543q0 -85 -29.5 -126t-90.5 -41q-44 0 -84 22zM56 770l84 109h66l-100 -109h-50zM333 770l84 109h66l-100 -109h-50z" />
<glyph horiz-adv-x="322" d="M57 0v516h47v-516h-47zM145 -155q16 -7 31 -7q23 0 32.5 15.5t9.5 52.5v610h47v-605q0 -59 -19 -86t-61 -27q-28 0 -49 12zM53 611l74 139h58l-87 -139h-45zM214 611l74 139h58l-87 -139h-45z" />
<glyph horiz-adv-x="231" d="M72 0v479h-56v37h56v79q0 66 29 103.5t81 37.5q27 0 48 -9l-12 -37q-16 6 -32 6q-34 0 -50.5 -24t-16.5 -75v-81h95v-37h-95v-479h-47z" />
<glyph horiz-adv-x="231" d="M72 0v479h-56v37h56v79q0 66 29 103.5t81 37.5q27 0 48 -9l-12 -37q-16 6 -32 6q-34 0 -50.5 -24t-16.5 -75v-81h175v-37h-175v-479h-47z" />
<glyph horiz-adv-x="0" d="M-84 -165q33 -19 70 -19q25 0 38.5 11.5t13.5 32.5q0 44 -68 44h-31l38 98h46l-23 -61q40 -4 61.5 -25t21.5 -56q0 -39 -25.5 -61t-71.5 -22q-51 0 -83 23z" />
<glyph horiz-adv-x="0" d="M-44 -217q33 45 40 79q-15 2 -23.5 10.5t-8.5 22.5q0 15 9.5 24.5t26.5 9.5q18 0 29 -12t11 -32q0 -27 -16 -60t-44 -62z" />
<glyph horiz-adv-x="0" d="M-29 770l84 109h66l-100 -109h-50z" />
<glyph horiz-adv-x="0" d="M-21 770l-100 109h66l84 -109h-50z" />
<glyph horiz-adv-x="0" d="M55 770l-55 71l-55 -71h-49l75 109h58l75 -109h-49z" />
<glyph horiz-adv-x="0" d="M120 871q-3 -98 -68 -98q-18 0 -35.5 9t-45.5 33q-11 10 -18 13.5t-15 3.5q-13 0 -19.5 -12.5t-9.5 -43.5h-41q3 98 68 98q18 0 35.5 -9t45.5 -33q11 -10 18 -13.5t15 -3.5q13 0 19.5 12.5t9.5 43.5h41z" />
<glyph horiz-adv-x="0" d="M-29 770l-75 109h49l55 -71l55 71h49l-75 -109h-58z" />
<glyph horiz-adv-x="0" d="M-32 824q0 -16 -10 -25.5t-27 -9.5t-27 9.5t-10 25.5t10 25.5t27 9.5t27 -9.5t10 -25.5zM106 824q0 -16 -10 -25.5t-27 -9.5t-27 9.5t-10 25.5t10 25.5t27 9.5t27 -9.5t10 -25.5z" />
<glyph horiz-adv-x="0" d="M109 873q-3 -47 -33 -75t-76 -28t-76 28t-33 75h40q7 -31 24.5 -47t44.5 -16t44.5 16t24.5 47h40z" />
<glyph horiz-adv-x="0" d="M96 855q0 -42 -26.5 -68t-69.5 -26t-69.5 26t-26.5 68t26.5 68t69.5 26t69.5 -26t26.5 -68zM54 855q0 24 -15.5 40.5t-38.5 16.5t-38.5 -16.5t-15.5 -40.5t15.5 -40.5t38.5 -16.5t38.5 16.5t15.5 40.5z" />
<glyph horiz-adv-x="598" d="M497 66q-19 -76 -85 -76q-21 0 -39 6q-50 15 -74 15t-74 -15q-18 -6 -39 -6q-66 0 -85 76q-19 77 -19 94q0 19 8 39q3 9 3 23q0 21 -5 48.5t-12.5 56.5t-14.5 54t-11 42q-10 40 -10 55q0 43 40 75q7 6 10 9.5t5.5 8t5.5 13.5q21 60 72 93t126 33t126 -33t72 -93 q3 -8 5 -12.5t5 -8t11 -10.5q40 -32 40 -75q0 -15 -10 -55q-4 -17 -11 -42t-14.5 -54t-12.5 -56.5t-5 -48.5q0 -14 3 -23q8 -20 8 -39q0 -17 -19 -94zM221 262q7 12 15.5 35.5t8.5 28.5t-5 5q-1 0 -2.5 -0.5t-3.5 -2.5q-4 -4 -10 -7t-10 -3q-3 0 -5.5 1.5t-2.5 2.5q0 4 8 10 q10 7 10 11q0 5 -7 5q-3 0 -9 -7q-5 -5 -12 -5q-11 0 -16 8q-3 6 -7 6q-7 0 -7 -5q0 -2 0.5 -4t0.5 -4q0 -8 -7 -8q-4 0 -9 4q-3 2 -11 2q-3 0 -5.5 2t-2.5 5q0 7 13 14q4 3 27 8q4 1 4 7t-7 6q-19 0 -32 -5q-13 -4 -18 -11t-5 -18q0 -18 10 -41t27 -40q12 -13 22 -18.5 t20 -5.5q5 0 14 7.5t14 16.5zM378 138q0 13 2 25q1 4 1.5 7.5t0.5 5.5q0 4 -5 4t-24.5 -3.5t-54.5 -3.5q-34 0 -53 3.5t-24 3.5q-7 0 -7 -4q0 -2 2 -9.5t4 -11.5q3 -5 18 -7q25 -2 44 -2q23 0 35 1t18 1q16 0 16 -12q0 -11 -14 -13q-25 -3 -53 -3q-17 0 -29.5 1t-21.5 1 q-13 0 -13 -10q0 -13 12 -30q9 -13 27 -21t39 -8q22 0 41 8t27 21q12 17 12 37v19zM398 221q16 -17 31 -17t25 37q9 35 20 49q8 9 15 21t7 18q0 8 -4 8q-1 0 -5 -1.5t-8 -3.5t-5 -2q-7 0 -7 9q0 8 6 29.5t15 45.5q13 33 13 48q0 11 -8 25q-10 15 -15 15t-13 -8 q-17 -17 -42 -17q-29 0 -45 28q-7 12 -7 19q0 6 5 6q3 0 10 -5t11 -5q6 0 11 8q5 10 5 26q0 17 -6.5 29.5t-14.5 12.5q-3 0 -17 -4t-34.5 -8.5t-42.5 -4.5q-11 0 -32 3t-28 5q-15 5 -22 7t-10 2q-7 0 -18 -7q-12 -7 -28.5 -20.5t-25.5 -24.5q-29 -31 -29 -49q1 -10 4.5 -20 t4.5 -25q0 -12 -1.5 -20t-1.5 -15q0 -8 2.5 -10t13.5 -2q17 0 36.5 3t36 6t22.5 3q12 0 20.5 -4t18.5 -14q13 -13 13 -32q0 -6 -1 -17t-2 -20l-8 -79q2 -32 35 -32q17 0 26.5 8.5t9.5 23.5q0 4 -0.5 7.5t-0.5 6.5q0 11 8 11q5 0 20 -15zM452 382q-5 0 -9 2.5t-11 7.5t-16 5 q-12 0 -47 -11q-7 -2 -16 -5t-17 -5.5t-11 -2.5q-4 0 -6.5 2.5t-2.5 5.5q0 5 6 8q12 7 44.5 21t42.5 17q9 3 13 3q9 0 18 -8q7 -6 14.5 -15t7.5 -12q0 -5 -3 -9t-7 -4zM449 350q0 -4 -13.5 -8t-24.5 -4q-12 1 -24 4.5t-21 3.5q-11 0 -16.5 -0.5t-12.5 -0.5q-9 0 -9 5 q0 7 6 8q9 3 37.5 6t37.5 3q6 0 8.5 -1.5t4.5 -6.5q3 -6 10 -6q3 0 5.5 1t6.5 1q5 0 5 -5z" />
</font>
</defs>
</svg>
